<?xml version="1.0" standalone="no"?>
<!DOCTYPE svg PUBLIC "-//W3C//DTD SVG 20010904//EN"
 "http://www.w3.org/TR/2001/REC-SVG-20010904/DTD/svg10.dtd">
<svg version="1.0" xmlns="http://www.w3.org/2000/svg"
 width="800.000000pt" height="800.000000pt" viewBox="0 0 800.000000 800.000000"
 preserveAspectRatio="xMidYMid meet">
<metadata>
Created by potrace 1.14, written by Peter Selinger 2001-2017
</metadata>
<g transform="translate(0.000000,800.000000) scale(0.100000,-0.100000)"
fill="#000000" stroke="none">
<path d="M1 7773 l0 -227 19 37 c11 20 20 50 20 66 0 71 29 97 103 92 20 -1
37 1 37 6 0 12 54 43 74 43 31 0 16 -21 -29 -41 -52 -23 -57 -43 -20 -78 14
-13 25 -29 25 -35 0 -7 9 -21 20 -31 15 -13 20 -31 20 -66 0 -39 -4 -51 -26
-68 -36 -28 -54 -27 -54 4 0 57 -71 14 -72 -44 -1 -23 -6 -31 -19 -31 -29 0
-83 38 -91 62 -3 13 -6 -84 -7 -216 -1 -218 0 -237 15 -225 14 11 20 9 43 -20
17 -21 26 -42 24 -56 -6 -30 40 -59 97 -60 25 -1 54 -6 65 -12 11 -6 28 -14
38 -17 9 -3 17 -14 17 -25 0 -13 12 -27 33 -37 17 -9 45 -27 60 -40 16 -13 34
-24 40 -24 18 0 67 -49 67 -67 0 -12 7 -14 35 -9 21 4 50 2 70 -5 l34 -13 -20
-37 c-25 -49 -24 -52 6 -45 21 5 29 1 43 -23 10 -19 26 -31 42 -33 15 -2 29
-12 35 -25 5 -13 14 -23 20 -23 5 0 4 -4 -4 -9 -24 -16 56 -26 87 -11 24 11
29 9 58 -22 42 -44 67 -58 108 -58 25 0 40 -7 55 -26 20 -25 22 -26 39 -11 10
9 29 16 42 17 70 1 82 0 96 -15 11 -10 12 -15 3 -15 -7 0 -9 -3 -6 -7 4 -3 2
-12 -4 -19 -6 -7 -8 -22 -4 -34 5 -17 15 -20 61 -20 41 0 60 -5 76 -20 16 -15
36 -20 75 -20 29 0 53 -4 53 -10 0 -5 7 -10 15 -10 8 0 15 7 15 15 0 16 6 18
60 15 26 -1 42 5 59 24 27 28 50 33 69 14 19 -19 14 -35 -23 -72 -32 -32 -36
-34 -64 -23 -24 9 -34 8 -43 -1 -10 -10 -7 -18 16 -37 16 -14 32 -25 36 -25
13 0 100 60 100 69 0 5 12 12 26 15 15 4 33 14 41 21 16 16 32 19 108 16 41
-2 55 -8 78 -32 15 -16 31 -29 36 -29 4 0 17 -20 29 -44 29 -57 38 -64 90 -63
l43 0 -2 41 c-2 23 1 47 5 54 14 23 62 13 95 -20 26 -27 30 -38 25 -61 -4 -21
-3 -27 5 -23 19 12 113 -35 106 -53 -3 -8 -1 -17 5 -21 16 -10 -6 -60 -25 -60
-23 0 -15 -32 11 -45 23 -11 113 -8 97 4 -15 11 -60 106 -55 119 2 6 10 12 17
12 7 0 15 9 18 19 6 26 68 51 123 51 25 0 44 5 44 11 0 6 9 8 23 3 57 -19 189
25 200 67 3 11 20 25 37 32 22 8 30 17 26 30 -3 12 5 22 26 33 24 13 29 20 24
40 -4 13 -2 24 3 24 13 0 41 29 41 42 0 6 -18 7 -49 3 -33 -4 -57 -2 -73 6
-12 8 -39 14 -58 14 -121 4 -120 4 -130 30 -5 14 -14 25 -19 25 -6 0 -25 13
-43 29 -37 33 -83 33 -93 1 -5 -14 -19 -19 -67 -22 -34 -1 -68 2 -76 8 -22 16
-11 46 28 72 23 15 40 37 49 65 l14 41 -43 38 c-33 29 -38 38 -23 38 10 0 24
5 30 11 6 6 31 11 55 9 24 -1 63 -2 87 -3 42 -2 46 -5 67 -46 12 -25 20 -50
17 -57 -10 -26 17 -82 42 -88 14 -4 25 -11 25 -16 0 -5 14 -22 32 -39 23 -21
45 -31 85 -36 37 -4 56 -12 63 -25 13 -25 13 -28 -7 -33 -17 -4 -17 -5 1 -12
11 -5 26 -3 37 3 10 7 26 12 35 12 15 0 53 37 54 52 0 3 -8 9 -17 11 -14 4
-12 5 5 6 12 0 22 6 22 11 0 6 13 10 29 10 70 0 77 29 8 31 -23 1 20 8 95 16
76 7 154 21 175 29 35 15 36 17 19 30 -17 12 -16 14 21 20 37 6 39 8 35 36
l-5 30 -17 -27 c-11 -17 -20 -23 -24 -16 -4 6 -2 11 3 11 6 0 11 11 11 25 0
14 -4 25 -10 25 -5 0 -10 8 -10 17 0 13 3 14 12 5 9 -9 14 -7 24 6 10 14 15
15 25 5 7 -7 17 -13 21 -13 5 0 8 6 7 13 -4 29 3 37 30 37 16 0 37 7 45 16 19
19 67 23 73 7 3 -8 -5 -13 -21 -13 -24 0 -26 -3 -26 -47 0 -27 4 -54 9 -61 13
-21 59 -3 88 35 24 31 25 38 15 67 -20 54 -17 59 33 54 39 -5 45 -3 45 13 0
23 69 31 86 10 9 -12 17 -9 43 18 32 33 38 47 21 53 -7 2 -7 21 2 57 10 46 17
56 45 67 18 8 33 21 33 29 0 22 34 18 55 -5 13 -14 21 -17 26 -9 9 16 69 1 69
-17 0 -9 -4 -13 -9 -9 -14 8 -40 -22 -47 -53 -3 -15 -11 -37 -17 -50 -9 -18
-8 -25 3 -32 8 -5 18 -6 23 -3 19 11 53 -8 64 -37 14 -36 36 -39 51 -5 6 14
16 25 21 25 14 0 41 -29 41 -45 0 -7 7 -15 15 -19 8 -3 12 -12 9 -21 -4 -9 -1
-15 9 -15 8 0 17 -7 21 -15 3 -8 17 -15 32 -15 27 0 27 1 7 -49 -5 -10 0 -12
15 -6 17 5 22 2 22 -11 0 -15 9 -16 70 -12 71 5 87 -3 53 -27 -15 -11 -11 -14
25 -20 23 -4 44 -10 47 -15 3 -4 27 -20 55 -34 52 -27 101 -33 144 -16 32 12
126 -9 126 -28 0 -7 7 -15 15 -18 19 -8 9 -24 -14 -24 -28 0 -75 -27 -59 -33
9 -4 5 -13 -14 -29 l-28 -23 37 -30 c19 -17 41 -35 47 -40 20 -18 66 -35 96
-35 30 0 41 -15 18 -23 -7 -2 -4 -3 7 -1 22 3 59 -19 48 -29 -3 -4 -14 -7 -24
-7 -44 0 -19 -44 44 -76 15 -8 27 -21 27 -28 0 -7 7 -20 16 -27 9 -8 28 -32
42 -54 14 -22 39 -53 57 -70 18 -16 35 -38 39 -48 3 -10 19 -24 35 -30 16 -6
32 -19 34 -28 3 -9 19 -20 36 -24 17 -4 29 -10 27 -14 -3 -4 11 -27 30 -50 19
-24 34 -54 34 -66 0 -12 6 -38 14 -56 8 -19 12 -45 9 -59 -3 -20 4 -33 31 -58
42 -38 76 -36 50 4 -9 13 -20 21 -25 18 -21 -13 -7 19 18 40 22 19 35 22 70
18 33 -3 44 -1 49 11 8 22 104 90 104 74 0 -8 4 -7 10 3 8 12 10 11 10 -7 0
-15 5 -21 14 -17 10 4 15 -7 18 -43 6 -62 -12 -108 -51 -128 -17 -8 -31 -22
-31 -30 0 -7 -12 -23 -27 -35 -28 -22 -39 -50 -20 -50 6 0 2 -7 -9 -15 -18
-14 -16 -15 21 -9 75 13 90 20 93 42 2 12 7 22 11 22 5 0 25 14 46 30 45 36
54 37 48 7 -4 -17 4 -31 26 -50 17 -14 31 -33 31 -41 0 -25 -38 -58 -60 -51
-10 3 -21 1 -25 -5 -3 -5 -17 -10 -31 -10 -19 0 -26 -6 -30 -30 -9 -41 -30
-57 -55 -42 -15 9 -23 9 -38 0 -15 -9 -24 -8 -45 5 -25 17 -26 17 -26 -1 0
-10 5 -23 11 -29 7 -7 7 -13 1 -17 -6 -3 -13 -2 -17 4 -3 5 -14 10 -24 10 -27
0 -67 23 -90 51 l-20 24 -1 -23 c0 -13 5 -32 10 -42 13 -24 -5 -37 -25 -20
-13 10 -16 7 -21 -19 -4 -17 -10 -31 -15 -31 -8 0 -11 13 -13 68 -1 11 -12 19
-36 23 -43 8 -50 5 -50 -27 0 -29 -4 -30 -28 -6 -15 15 -16 20 -2 49 8 17 25
36 38 42 16 8 22 19 22 41 0 16 5 30 10 30 6 0 10 -6 10 -14 0 -26 29 -27 36
0 12 49 -31 254 -54 254 -4 0 -16 16 -26 35 -12 21 -27 35 -38 35 -26 0 -148
101 -148 123 0 9 -4 17 -10 17 -5 0 -10 -6 -10 -12 0 -7 -11 0 -25 15 -14 15
-32 27 -40 27 -8 0 -15 3 -15 8 0 10 -50 32 -71 32 -10 0 -21 5 -24 10 -10 17
-44 11 -55 -9 -16 -31 -12 -69 8 -75 17 -6 56 -65 48 -73 -13 -14 -126 35
-126 54 0 9 -15 13 -52 11 -36 -1 -43 -2 -20 -5 29 -4 32 -7 32 -38 0 -18 6
-35 13 -38 8 -3 6 -9 -8 -20 -20 -16 -20 -17 17 -88 25 -49 35 -76 28 -84 -5
-6 -6 -16 -1 -21 5 -5 16 -33 26 -61 9 -29 21 -55 26 -58 5 -4 9 -15 9 -26 0
-27 65 -96 96 -102 20 -3 28 0 31 14 5 17 7 17 29 2 13 -8 24 -25 24 -38 0
-13 9 -26 24 -33 32 -14 76 -93 76 -136 0 -22 9 -45 24 -63 20 -24 34 -66 37
-108 2 -36 -20 -148 -30 -155 -7 -4 -13 -24 -13 -44 0 -27 -4 -36 -16 -36 -11
0 -13 -3 -6 -8 16 -10 28 -52 15 -52 -5 0 -11 -21 -13 -47 -3 -42 -6 -48 -23
-45 -34 5 -171 11 -145 6 45 -8 105 -28 127 -42 21 -13 21 -14 2 -33 -10 -10
-19 -29 -19 -41 0 -13 -3 -18 -8 -12 -4 6 -24 14 -44 18 -31 6 -37 4 -43 -14
-7 -21 -30 -27 -40 -10 -8 14 -35 13 -35 -1 0 -7 8 -18 18 -25 16 -13 16 -13
0 -14 -10 0 -18 4 -18 8 0 5 -38 14 -85 21 -89 14 -117 30 -95 56 8 9 30 15
56 15 24 0 44 4 44 9 0 15 -42 56 -65 65 -29 11 -242 7 -291 -5 -45 -12 -111
2 -126 25 -5 6 -8 1 -8 -11 0 -14 -6 -23 -15 -23 -8 0 -15 5 -15 10 0 6 -9 10
-20 10 -14 0 -20 -7 -20 -21 0 -20 -4 -21 -57 -15 -32 3 -100 6 -150 7 -84 1
-93 3 -93 20 0 22 -29 59 -46 59 -7 0 -14 6 -17 14 -7 17 -136 31 -151 16 -7
-7 -1 -10 20 -10 16 0 38 -7 48 -15 11 -8 27 -15 35 -15 8 0 30 -10 48 -23 31
-21 33 -26 33 -79 0 -32 -4 -58 -10 -58 -5 0 -10 -19 -11 -42 0 -24 -3 -37 -6
-30 -2 6 -8 12 -12 12 -11 0 -45 -69 -37 -77 10 -10 37 -13 31 -3 -3 5 -1 11
5 15 5 3 10 0 10 -7 0 -35 52 90 58 140 l7 57 93 3 c117 3 172 -16 172 -59 0
-15 -4 -30 -9 -34 -6 -3 -4 -24 4 -53 7 -26 16 -69 20 -97 4 -27 13 -58 20
-68 12 -17 13 -17 19 6 3 13 17 36 31 51 24 26 28 27 61 16 20 -7 58 -10 85
-8 27 3 52 1 55 -3 3 -5 18 -9 33 -9 16 0 48 -7 71 -15 23 -8 59 -15 79 -15
21 0 46 -7 57 -15 10 -8 29 -15 41 -15 32 0 37 -17 8 -27 -35 -12 -18 -31 30
-34 77 -4 128 11 167 49 40 38 45 54 52 160 2 35 6 66 9 68 2 2 9 -37 16 -88
20 -155 41 -218 55 -163 8 33 36 33 36 1 0 -14 5 -37 11 -53 13 -33 19 -72 24
-134 1 -26 8 -55 14 -66 8 -16 6 -24 -9 -38 -14 -13 -18 -27 -15 -56 2 -21 7
-44 10 -50 4 -5 1 -10 -6 -8 -34 4 -42 0 -29 -16 7 -8 16 -12 21 -9 5 3 9 0 9
-5 0 -6 -4 -11 -10 -11 -5 0 -10 -7 -10 -15 0 -8 -3 -15 -7 -15 -5 0 -13 -11
-20 -25 -10 -22 -8 -27 10 -40 18 -13 19 -19 10 -48 -7 -23 -7 -40 -1 -52 6
-9 7 -35 4 -56 -5 -30 -3 -41 8 -45 11 -4 12 -11 6 -22 -5 -10 -11 -29 -15
-45 -5 -24 -8 -26 -25 -17 -11 6 -20 21 -20 33 0 12 -7 31 -15 41 -17 22 -20
76 -5 76 16 0 12 50 -5 56 -8 4 -15 14 -15 24 0 10 -7 20 -15 24 -9 3 -15 0
-15 -9 0 -10 -11 -14 -37 -14 -47 1 -101 -9 -131 -24 -18 -9 -30 -8 -55 6 -18
9 -51 20 -74 23 -27 4 -56 19 -81 39 -29 25 -44 32 -65 28 -20 -4 -27 -1 -27
10 0 8 -7 17 -15 21 -15 5 -45 -2 -45 -11 0 -14 38 -75 72 -116 35 -41 39 -53
36 -87 -3 -33 0 -40 14 -40 10 0 18 -4 18 -9 0 -12 -100 -7 -169 7 -29 7 -66
10 -82 7 -22 -4 -34 1 -54 22 -14 15 -25 33 -25 39 0 6 -9 19 -20 29 -27 25
-25 42 7 58 22 12 29 26 40 78 8 42 20 71 35 85 24 21 28 30 36 77 5 34 -3 34
-32 0 -22 -25 -26 -26 -147 -29 -68 -2 -142 -8 -164 -13 -58 -15 -120 -13
-162 4 -52 22 -212 32 -223 15 -11 -18 16 -70 35 -70 8 0 15 -4 15 -10 0 -5
11 -12 25 -16 25 -6 55 -49 55 -77 0 -21 44 -47 78 -47 34 0 102 -26 102 -39
0 -16 -25 -29 -75 -36 -73 -11 -515 -6 -538 6 -21 12 -106 4 -150 -13 -32 -12
-42 -43 -28 -81 9 -23 15 -26 36 -21 16 4 42 -2 73 -16 26 -13 63 -27 82 -32
78 -21 91 -21 111 0 10 12 25 19 32 17 6 -3 20 8 29 25 20 35 46 38 89 13 24
-14 33 -15 49 -5 27 16 50 15 72 -4 13 -13 21 -14 31 -5 24 19 60 16 112 -10
29 -15 64 -25 83 -23 46 3 102 -14 102 -31 0 -12 6 -12 26 -5 33 13 54 -2 54
-37 l0 -24 -187 6 c-114 4 -190 10 -194 17 -4 5 -27 9 -52 7 -34 -3 -48 0 -56
13 -13 21 -53 12 -49 -11 3 -12 20 -17 78 -22 41 -3 104 -13 140 -21 70 -17
341 -33 353 -21 11 10 177 14 211 5 l29 -8 -29 -27 c-37 -34 -110 -70 -198
-96 -83 -25 -195 -27 -317 -7 -46 8 -115 17 -153 21 -38 4 -90 13 -115 21 -25
8 -54 14 -63 14 -30 0 -20 -25 17 -43 19 -9 35 -21 35 -27 0 -5 18 -19 40 -30
22 -11 40 -18 40 -14 0 3 12 -2 28 -12 25 -17 93 -31 187 -40 22 -2 58 -8 80
-13 22 -6 86 -11 141 -11 81 0 111 4 148 20 25 12 46 24 46 28 0 4 13 16 29
25 17 10 32 25 35 35 3 9 19 26 36 37 16 11 32 32 35 47 8 33 51 63 87 60 36
-3 108 64 108 100 0 14 9 33 19 42 11 10 22 28 25 42 6 23 36 35 36 13 0 -5 8
-9 18 -7 9 1 32 -4 50 -12 26 -12 32 -19 28 -36 -4 -13 0 -27 9 -34 8 -7 15
-21 15 -32 0 -17 -5 -19 -25 -14 -19 5 -27 2 -31 -11 -3 -10 -8 -25 -12 -33
-3 -8 -4 -21 -3 -29 1 -8 -3 -17 -10 -22 -10 -6 -9 -13 4 -32 14 -22 15 -27 1
-38 -12 -10 -16 -9 -21 9 -5 23 -28 28 -51 13 -14 -9 -19 -61 -8 -80 5 -7 -2
-11 -18 -11 -26 0 -30 -9 -26 -57 1 -13 -3 -23 -9 -23 -6 0 -12 -17 -12 -37
-2 -31 -3 -33 -6 -11 -5 35 -16 35 -38 2 -12 -19 -23 -25 -41 -21 -22 4 -24 1
-24 -35 0 -26 -5 -41 -16 -45 -11 -4 -14 -16 -12 -42 2 -27 -1 -36 -14 -39
-14 -3 -18 3 -18 24 0 15 -3 24 -7 20 -12 -12 -33 -80 -33 -109 0 -25 -3 -27
-27 -21 -16 3 -34 8 -41 10 -8 2 -16 -5 -19 -16 -3 -11 -14 -20 -24 -20 -11 0
-19 -6 -19 -14 0 -27 -31 -47 -61 -41 -22 5 -29 3 -29 -9 0 -9 5 -16 10 -16 6
0 10 -7 10 -15 0 -19 -34 -19 -50 0 -17 21 -37 19 -50 -5 -17 -31 -43 -14 -34
23 4 20 3 27 -5 23 -6 -4 -11 -14 -11 -22 0 -8 -7 -14 -15 -14 -23 0 -27 -3
-57 -33 -15 -16 -24 -35 -21 -43 4 -10 -3 -14 -22 -14 -24 0 -27 3 -23 25 3
14 0 29 -6 34 -18 14 -126 24 -126 12 0 -6 -7 -11 -15 -11 -8 0 -15 5 -15 10
0 6 -7 10 -15 10 -8 0 -15 6 -15 14 0 27 -34 28 -53 2 -10 -15 -28 -26 -39
-26 -17 0 -20 5 -16 30 3 17 1 30 -4 30 -4 0 -8 -10 -8 -23 0 -12 -9 -28 -20
-35 -18 -11 -20 -10 -20 17 0 16 7 34 15 41 12 10 13 16 5 24 -8 8 -14 6 -21
-6 -6 -10 -17 -18 -24 -18 -10 0 -15 -11 -15 -35 0 -21 -5 -35 -12 -35 -7 0
-24 -3 -37 -7 l-24 -6 6 71 c5 44 3 73 -3 77 -5 3 -10 -3 -10 -14 0 -23 -34
-45 -56 -37 -7 3 -14 16 -14 28 0 68 -6 112 -16 115 -7 2 -28 -5 -48 -17 -45
-25 -53 -25 -61 0 -3 11 -12 20 -20 20 -12 0 -30 27 -27 41 0 3 -19 16 -44 29
-49 27 -53 35 -24 50 26 14 27 50 1 50 -16 0 -18 7 -15 45 3 47 -3 52 -37 35
-16 -9 -19 -7 -19 10 0 11 6 20 14 20 7 0 16 9 19 20 3 13 0 20 -9 20 -7 0
-18 -9 -24 -20 -6 -11 -19 -20 -29 -20 -11 0 -22 -7 -25 -16 -3 -9 -15 -14
-28 -12 -19 2 -23 9 -23 36 0 17 -3 32 -6 32 -4 0 -9 9 -12 20 -6 23 -42 27
-54 5 -11 -19 -62 -22 -103 -5 -26 11 -35 11 -38 2 -4 -14 -32 -16 -32 -2 0 6
-7 10 -15 10 -8 0 -17 12 -21 27 -9 45 -27 75 -51 86 -13 6 -23 18 -23 28 0
10 -8 22 -17 28 -15 8 -17 22 -14 91 3 75 1 83 -22 106 -16 16 -28 21 -32 14
-9 -15 -25 -2 -25 21 0 18 -5 20 -37 17 -29 -2 -38 1 -38 12 0 8 -4 18 -10 22
-13 10 -13 31 0 41 5 5 0 6 -12 2 -15 -4 -26 0 -35 14 -13 19 -17 19 -34 6
-24 -18 -45 -19 -69 -1 -18 13 -18 14 1 39 23 31 87 38 102 11 8 -14 10 -13
15 5 5 22 -23 51 -50 51 -7 0 -12 3 -10 8 1 4 -6 16 -16 27 -33 36 -74 109
-92 163 -13 40 -24 56 -44 65 -14 6 -40 24 -57 40 -31 28 -32 28 -63 12 -27
-14 -37 -14 -67 -3 -35 12 -36 12 -64 -22 l-29 -35 -30 29 c-27 26 -32 27 -62
17 -18 -6 -33 -11 -35 -11 -4 0 -27 64 -26 72 1 4 -15 19 -35 32 -40 28 -58
27 -120 -5 -42 -21 -68 -25 -57 -7 5 8 -2 9 -24 5 -22 -5 -32 -3 -32 6 0 6
-11 -8 -25 -32 -29 -50 -31 -64 -10 -81 8 -7 15 -20 15 -30 0 -10 8 -21 17
-24 33 -13 -6 -30 -74 -33 -36 -1 -71 -7 -77 -13 -5 -5 -20 -10 -31 -10 -12 0
-30 -9 -40 -20 -19 -21 -45 -27 -45 -11 0 20 -41 23 -61 5 -25 -22 -17 -29 34
-29 38 0 42 -3 45 -27 3 -21 -3 -30 -27 -43 -35 -18 -37 -26 -15 -60 15 -23
14 -24 -17 -40 -29 -16 -33 -16 -41 -1 -6 11 -23 16 -51 16 -69 0 -117 -18
-135 -51 -10 -16 -24 -29 -33 -29 -8 0 -20 -5 -26 -11 -9 -9 -20 -3 -45 23
-18 20 -41 38 -50 41 -15 5 -18 0 -18 -27 0 -32 2 -34 35 -33 29 1 42 -6 75
-43 22 -24 40 -47 40 -50 0 -3 -13 -20 -30 -38 -16 -18 -31 -34 -32 -36 -2 -1
3 -10 11 -19 10 -13 11 -17 1 -17 -7 0 -18 7 -24 15 -6 8 -29 17 -51 20 -99
12 -110 17 -116 63 -7 54 -14 60 -42 35 -31 -29 -85 -40 -93 -19 -8 22 -21 11
-39 -30 -8 -19 -21 -34 -29 -34 -10 0 -13 -6 -10 -15 4 -8 -1 -17 -10 -21 -12
-5 -13 -11 -6 -24 12 -22 13 -90 2 -106 -4 -6 -17 -16 -28 -22 -17 -9 -24 -8
-34 3 -7 8 -17 13 -23 12 -13 -2 -62 -52 -96 -97 -21 -28 -28 -31 -60 -25 -30
5 -41 2 -56 -16 -38 -42 -88 -66 -140 -67 -60 0 -80 9 -100 48 -20 38 -48 41
-39 5 4 -16 0 -34 -10 -50 -19 -28 -11 -54 24 -78 18 -13 19 -16 5 -27 -16
-13 -21 -40 -7 -40 4 0 13 5 19 11 19 19 94 14 109 -6 7 -10 11 -22 8 -26 -7
-12 0 -11 31 3 14 6 25 17 25 24 0 7 25 27 55 44 30 17 55 35 55 40 0 14 72
51 88 45 9 -3 13 -14 9 -31 -3 -17 2 -32 16 -45 22 -20 47 -25 47 -9 0 6 8 10
18 10 14 0 20 13 28 68 7 41 7 74 2 85 -19 37 14 74 77 87 22 4 33 14 40 35
15 45 24 55 50 55 41 0 55 11 55 41 0 32 3 34 31 19 22 -12 26 -50 5 -50 -22
0 -28 -31 -10 -51 9 -10 30 -19 48 -21 l31 -4 -40 -18 c-35 -16 -95 -67 -95
-80 0 -3 21 -8 46 -12 76 -11 93 -64 39 -124 -12 -14 -32 -46 -44 -73 -13 -26
-38 -62 -57 -79 -19 -18 -34 -39 -34 -48 0 -23 -74 -90 -99 -90 -13 0 -21 -6
-21 -16 0 -11 5 -14 18 -9 9 4 57 8 107 10 l89 3 32 37 c31 37 31 37 57 20 25
-16 26 -16 38 3 12 20 13 20 30 -2 13 -17 15 -31 10 -61 -4 -22 -4 -52 0 -68
5 -18 3 -32 -7 -41 -16 -17 -19 -92 -4 -101 6 -3 10 -1 10 4 0 6 11 21 25 33
20 17 25 30 23 60 -1 21 1 41 5 44 4 4 7 1 7 -8 0 -31 36 -50 79 -43 57 10 79
-15 77 -86 -1 -30 -5 -60 -9 -67 -5 -7 -6 -21 -2 -31 4 -13 -6 -29 -35 -55
-22 -20 -40 -41 -40 -47 0 -15 103 -6 108 10 2 6 12 21 22 33 21 27 40 16 22
-12 -17 -27 -15 -50 4 -50 18 0 60 -47 89 -99 11 -20 23 -38 26 -41 3 -3 12
-16 19 -30 7 -14 25 -41 41 -60 15 -20 35 -59 44 -88 10 -28 21 -52 26 -52 12
0 11 -34 -1 -46 -5 -5 -14 -42 -20 -83 -9 -65 -29 -127 -30 -94 0 7 -6 10 -13
7 -15 -5 -44 23 -34 33 4 3 2 12 -4 19 -15 19 -5 40 27 56 32 16 58 82 43 110
-13 25 -27 23 -31 -4 -2 -15 -9 -22 -20 -20 -12 2 -18 -6 -20 -25 -2 -17 -9
-28 -18 -28 -10 0 -15 -11 -16 -35 -2 -52 -3 -55 -15 -43 -14 14 -35 -3 -41
-33 -4 -23 -38 -32 -38 -10 0 9 5 16 10 16 6 0 10 18 10 40 0 22 -4 40 -8 40
-21 0 -32 -29 -32 -82 l0 -58 -36 0 c-36 0 -67 21 -162 108 -48 44 -112 43
-112 -2 0 -44 12 -66 35 -66 13 0 36 -7 51 -15 16 -8 39 -15 50 -15 12 0 24
-6 27 -14 3 -8 19 -17 36 -21 17 -4 31 -13 31 -21 0 -13 -11 -17 -52 -17 -10
0 -18 -4 -18 -8 0 -5 11 -9 25 -9 29 0 30 -3 9 -35 -20 -30 -34 -32 -34 -6 0
11 -5 23 -10 26 -6 4 -8 11 -5 16 4 5 1 9 -4 9 -6 0 -11 5 -11 10 0 6 7 10 15
10 19 0 19 7 0 27 -13 12 -18 13 -31 2 -14 -11 -18 -11 -28 3 -14 19 -70 35
-109 30 -18 -2 -32 -13 -41 -31 -33 -62 -42 -57 -55 33 -19 124 -17 169 6 202
11 16 23 42 27 57 5 23 10 26 21 17 10 -9 15 -5 20 19 8 37 -1 57 -19 42 -7
-6 -15 -8 -18 -5 -6 6 0 101 7 122 8 23 -5 32 -30 20 -34 -15 -39 -6 -26 47
12 48 65 108 89 100 6 -2 12 3 12 13 0 10 6 26 14 37 7 11 16 42 19 70 4 44 4
48 -9 30 -8 -10 -14 -27 -14 -37 0 -10 -5 -18 -11 -18 -7 0 -9 12 -5 34 5 28
3 36 -16 48 -30 20 -134 33 -143 19 -10 -17 -55 -13 -55 4 0 8 -7 15 -15 15
-18 0 -19 0 -74 17 -24 7 -59 13 -78 13 -19 0 -46 6 -61 14 -15 7 -68 17 -117
20 -84 7 -92 6 -109 -13 -11 -12 -27 -21 -36 -21 -26 0 -60 43 -60 75 0 23 -3
26 -12 17 -21 -21 -50 -15 -46 9 2 17 -9 28 -49 51 l-53 30 0 -51 c0 -44 3
-51 20 -51 28 0 37 -43 16 -75 -9 -14 -21 -25 -26 -25 -6 0 -10 -64 -10 -164
0 -147 2 -165 17 -171 10 -3 67 -6 126 -6 97 1 114 -2 150 -23 38 -21 52 -23
132 -19 103 4 135 -1 135 -23 0 -13 10 -15 53 -13 109 6 141 0 177 -29 32 -27
33 -32 33 -92 -1 -57 -4 -67 -27 -85 -26 -21 -34 -53 -17 -70 5 -6 12 -57 15
-115 3 -58 8 -123 12 -146 5 -34 2 -45 -20 -71 -14 -17 -26 -36 -26 -42 0 -6
-6 -11 -14 -11 -8 0 -17 -15 -20 -35 -7 -37 -15 -42 -34 -23 -8 8 -15 8 -27
-2 -8 -7 -15 -9 -15 -4 0 5 -11 -4 -23 -20 -24 -29 -24 -29 -44 -9 -19 19 -19
19 -56 -4 -22 -14 -37 -31 -37 -43 0 -13 -9 -21 -28 -25 -15 -4 -42 -13 -60
-21 -18 -8 -40 -14 -48 -14 -10 0 -14 -6 -10 -15 3 -9 0 -15 -9 -15 -8 0 -15
6 -15 13 0 7 -3 8 -8 2 -4 -6 -20 -16 -35 -23 -42 -18 -98 -63 -91 -73 7 -11
-17 -79 -28 -79 -4 0 -8 -13 -8 -30 0 -19 -7 -33 -20 -40 -11 -6 -19 -18 -18
-27 4 -20 -12 -26 -32 -13 -13 9 -13 11 0 20 13 9 13 10 0 10 -25 0 -42 -16
-38 -36 3 -15 12 -19 46 -18 33 1 42 -2 37 -13 -3 -8 -5 -16 -5 -19 0 -2 -13
-10 -29 -19 -18 -9 -34 -28 -41 -50 -10 -32 -20 -40 -42 -36 -5 0 -8 -154 -8
-344 l0 -345 3779 0 c3273 0 3780 2 3784 14 5 12 11 13 37 3 29 -11 34 -10 51
12 33 40 22 81 -15 56 -11 -8 -28 -15 -38 -15 -10 0 -18 -7 -18 -15 0 -9 -9
-15 -25 -15 -19 0 -28 8 -40 36 -8 20 -15 51 -15 70 0 18 -7 40 -16 48 -16 17
-16 73 1 69 6 -2 11 -18 13 -38 4 -42 21 -47 20 -5 -1 34 17 60 41 60 9 0 21
4 27 10 6 6 22 6 44 0 19 -6 50 -10 67 -10 31 0 33 2 33 33 0 18 -7 42 -15 54
-18 26 -4 68 25 76 19 5 50 59 50 87 0 22 20 30 74 30 31 0 55 9 89 31 l47 31
0 394 c0 376 -1 394 -18 383 -14 -9 -29 -7 -65 5 -26 9 -62 16 -79 16 -26 0
-30 3 -25 21 9 32 -2 50 -22 39 -26 -13 -54 -6 -57 15 -3 22 -22 35 -51 35
-16 0 -28 -13 -48 -54 -24 -48 -43 -65 -77 -66 -13 0 -78 62 -78 75 0 7 -7 18
-15 25 -8 7 -15 23 -15 36 0 23 -47 80 -57 70 -3 -3 -17 4 -31 14 -13 11 -33
20 -43 20 -11 0 -19 4 -19 9 0 5 -2 15 -5 23 -8 21 50 40 81 26 19 -9 28 -8
44 7 24 21 26 37 5 29 -8 -4 -17 1 -21 10 -8 21 -44 21 -44 0 0 -10 -9 -5 -26
15 -29 34 -45 38 -64 16 -16 -19 -30 -19 -30 -1 0 7 -9 25 -21 40 -37 47 -80
27 -82 -39 -1 -25 -6 -35 -16 -35 -27 0 -36 13 -39 55 -1 21 -7 42 -12 45 -5
3 -15 20 -23 39 l-14 33 -31 -31 c-38 -38 -42 -38 -42 -2 0 23 8 34 36 50 19
12 39 19 43 17 4 -3 13 -1 19 3 13 8 6 41 -9 41 -5 0 -9 26 -9 58 1 65 18 85
82 97 47 9 54 -10 24 -69 -19 -38 -21 -48 -10 -68 7 -13 15 -35 18 -49 7 -34
39 -42 84 -23 43 17 61 13 96 -26 20 -24 35 -30 65 -30 22 0 44 6 51 15 18 22
37 18 44 -8 11 -43 7 -64 -29 -127 -16 -27 -6 -40 31 -40 18 0 21 6 20 37 -1
47 27 59 45 19 7 -14 16 -23 21 -20 5 3 15 -2 22 -12 14 -19 36 -12 36 12 0
18 29 18 36 0 3 -8 1 -23 -5 -34 -8 -15 -7 -23 4 -32 18 -15 45 -6 45 15 0 21
68 20 91 -1 14 -12 22 -13 39 -4 16 8 25 8 35 0 9 -7 15 -8 20 0 9 15 42 12
70 -6 l25 -16 0 775 0 775 -38 -5 c-29 -4 -41 0 -56 16 -11 12 -14 21 -8 21 7
0 12 9 12 19 0 11 6 22 13 24 6 3 -2 6 -19 6 -16 1 -39 8 -50 16 -22 17 -105
20 -121 4 -6 -6 -44 -12 -84 -13 -61 -2 -82 -7 -118 -30 -31 -20 -52 -27 -75
-23 -17 2 -58 -2 -92 -9 -34 -7 -99 -16 -145 -19 -46 -4 -97 -15 -114 -24 -16
-9 -48 -18 -70 -21 -34 -4 -40 -9 -43 -31 -2 -16 6 -35 23 -53 28 -31 33 -81
11 -111 -13 -19 -16 -19 -49 -3 -19 9 -38 26 -42 37 -7 24 -24 27 -48 8 -22
-15 -147 -11 -147 6 0 7 23 36 50 65 28 29 50 57 50 62 0 6 6 10 14 10 14 0
28 34 41 97 4 22 15 37 33 45 33 16 39 48 15 70 -28 25 -202 36 -260 17 -25
-8 -33 -16 -33 -34 0 -48 -37 -100 -90 -126 -37 -18 -50 -30 -50 -46 0 -13 5
-23 10 -23 20 0 9 -26 -21 -53 -26 -23 -32 -35 -34 -78 -1 -27 -5 -53 -8 -56
-14 -13 -35 27 -43 82 -11 75 -33 85 -60 26 -14 -29 -25 -41 -41 -41 -29 0
-38 33 -18 63 9 14 14 30 13 37 -4 15 49 32 75 24 13 -4 17 0 17 18 0 48 46
95 130 133 19 9 38 21 42 28 9 13 11 67 3 67 -11 0 -52 -27 -82 -54 -25 -23
-115 -64 -144 -66 -3 0 -11 12 -18 26 -9 20 -9 30 1 41 10 12 8 18 -12 33 -21
16 -25 26 -23 69 2 42 -1 51 -18 56 -13 4 -27 1 -38 -9 -12 -11 -27 -14 -47
-10 -25 5 -32 1 -43 -20 -12 -22 -12 -29 3 -51 9 -14 24 -25 34 -25 11 -1 7
-6 -13 -17 -52 -27 -66 -43 -54 -64 5 -11 16 -19 23 -19 22 0 28 -30 8 -37
-26 -10 -82 -57 -82 -69 0 -16 48 -54 68 -54 12 0 28 -21 49 -65 29 -60 31
-67 17 -93 -7 -15 -14 -33 -14 -39 0 -35 -49 11 -70 66 -13 33 -14 34 -23 10
-9 -23 -12 -33 -15 -71 -1 -10 -8 -18 -16 -18 -27 0 -37 -67 -11 -76 8 -4 15
-12 15 -18 0 -7 20 -33 44 -59 35 -38 50 -47 77 -47 44 -1 65 -17 74 -58 8
-38 30 -52 79 -52 31 0 38 5 56 38 l21 37 -6 -55 c-10 -100 -10 -105 1 -103 7
1 9 -8 6 -22 -3 -18 5 -36 32 -67 46 -54 52 -60 68 -75 56 -54 61 -62 55 -91
-7 -36 9 -53 47 -50 17 2 26 8 26 20 0 22 16 24 24 3 7 -19 35 -19 60 0 11 8
26 15 33 15 22 0 73 42 73 59 0 9 -16 30 -35 46 -19 17 -35 34 -35 38 0 5 -9
20 -20 34 -26 33 -27 73 -1 73 10 0 24 7 31 15 20 24 28 18 35 -24 4 -22 12
-44 18 -49 15 -11 47 -12 47 0 0 14 75 9 108 -7 33 -17 34 -33 3 -68 -12 -15
-13 -20 -2 -26 7 -5 12 -11 12 -15 -1 -12 -69 -66 -83 -66 -8 0 -29 -11 -48
-25 -19 -14 -41 -25 -50 -25 -9 0 -27 -11 -40 -25 -13 -14 -29 -25 -37 -25
-17 0 -17 -24 0 -38 17 -13 78 -7 88 9 5 8 9 22 9 32 0 21 16 23 23 3 3 -8 18
-16 34 -18 23 -2 29 -8 31 -35 4 -37 -9 -42 -35 -14 -13 14 -23 17 -33 11 -12
-7 -12 -12 3 -28 9 -10 18 -34 20 -52 4 -50 25 -49 33 0 8 47 26 60 49 36 25
-25 16 -88 -14 -103 -14 -6 -31 -24 -39 -38 -11 -22 -18 -26 -40 -20 -15 4
-33 12 -40 18 -8 6 -20 12 -27 13 -7 1 -22 5 -33 8 -11 4 -23 2 -27 -4 -3 -5
-15 -10 -26 -10 -10 0 -19 -4 -19 -10 0 -5 -7 -10 -15 -10 -8 0 -15 -7 -15
-15 0 -8 -4 -15 -10 -15 -8 0 -15 53 -8 63 1 1 -4 12 -11 25 -8 15 -21 22 -41
22 -18 0 -39 10 -55 26 -14 14 -32 23 -40 20 -8 -3 -15 -1 -15 4 0 5 -11 20
-25 34 -20 20 -31 24 -60 19 -27 -4 -36 -2 -41 12 -4 9 -25 25 -48 36 -23 10
-49 24 -58 31 -14 10 -21 9 -40 -9 -29 -27 -98 -42 -98 -22 0 22 36 71 62 85
27 15 63 0 54 -22 -3 -8 1 -14 10 -14 9 0 18 9 21 20 6 23 5 23 54 9 23 -7 39
-19 42 -31 7 -24 40 -20 45 5 2 10 -13 42 -33 72 -21 33 -35 65 -33 78 2 14
-2 22 -12 23 -8 1 -22 2 -31 3 -8 0 -22 15 -30 33 -18 41 -29 44 -59 16 l-23
-22 6 23 c5 19 2 22 -13 18 -16 -4 -20 2 -26 40 -6 42 -10 46 -64 73 -32 16
-61 34 -65 40 -3 5 -37 10 -75 10 -53 0 -69 4 -74 16 -3 9 -4 20 0 25 3 5 0 9
-6 9 -6 0 -8 5 -5 10 4 6 -10 17 -30 26 -20 8 -44 28 -53 44 -9 17 -23 30 -29
30 -32 0 -5 103 36 139 30 26 53 91 32 91 -6 0 -11 11 -11 24 0 17 -7 25 -25
28 -30 6 -35 2 -35 -29 0 -13 -4 -23 -10 -23 -5 0 -10 4 -10 9 0 5 -9 11 -19
14 -22 5 -48 51 -54 93 -4 34 -30 43 -57 19 -12 -11 -26 -14 -39 -10 -17 5
-21 2 -21 -18 0 -14 5 -27 11 -29 15 -5 0 -36 -21 -43 -24 -7 -32 -43 -13 -53
12 -7 10 -12 -10 -25 -23 -15 -26 -15 -31 0 -4 8 -1 22 5 29 6 8 8 14 3 14 -5
0 -17 14 -26 31 -12 20 -24 29 -36 27 -11 -2 -31 3 -45 11 -22 12 -27 22 -27
52 l0 38 38 -6 c20 -3 40 -11 43 -16 4 -5 15 -7 24 -3 16 6 16 8 3 24 -21 23
-30 92 -16 109 9 11 8 13 -2 11 -21 -5 -31 63 -30 197 2 119 4 140 19 131 10
-6 51 39 51 57 0 6 7 3 15 -7 8 -11 12 -28 9 -38 -3 -10 -3 -32 1 -48 6 -26
11 -30 42 -30 26 0 36 5 40 20 8 28 21 25 41 -11 15 -27 21 -30 51 -25 44 7
53 21 46 76 -4 31 -1 54 10 74 14 27 14 34 0 81 -17 51 -15 71 10 176 10 38
-12 107 -35 114 -11 3 -17 12 -14 20 4 9 -8 21 -33 34 -22 11 -45 27 -52 35
-8 9 -26 16 -42 16 -15 0 -31 5 -34 10 -3 6 3 10 14 10 11 0 35 14 53 30 18
17 43 33 56 36 17 5 22 12 20 36 -3 41 -27 60 -26 20 1 -48 -8 -54 -70 -46
-32 3 -61 10 -65 14 -5 4 -1 30 8 57 l16 50 42 -8 c23 -4 50 -11 59 -14 9 -4
27 0 38 8 21 15 21 15 2 29 -11 7 -25 32 -31 55 -6 23 -16 45 -21 48 -6 3 -10
15 -10 26 0 16 -4 19 -21 14 -13 -4 -25 -2 -29 5 -8 12 27 90 40 90 8 0 43 62
38 65 -2 0 -16 6 -31 13 l-28 12 7 73 c8 90 10 178 4 196 -3 7 1 16 8 18 7 3
12 -4 12 -18 0 -12 7 -31 17 -41 15 -17 17 -17 40 16 32 48 29 96 -6 96 -9 0
-24 8 -33 19 -8 10 -22 21 -29 24 -11 3 -9 8 6 20 18 14 20 14 25 -4 3 -10 19
-27 36 -36 67 -38 84 -58 84 -101 0 -35 5 -43 33 -60 31 -20 34 -20 101 -3 76
19 103 42 115 102 9 46 49 52 79 14 16 -21 29 -26 54 -24 72 5 100 -1 105 -20
9 -34 83 -43 83 -11 0 11 4 20 10 20 5 0 7 -13 3 -30 -7 -37 1 -38 32 -4 16
17 38 28 67 31 24 3 55 12 69 19 14 7 36 10 48 7 15 -4 29 3 48 21 15 15 32
25 39 22 8 -3 17 1 21 8 5 7 20 16 36 20 32 8 36 -8 12 -54 -14 -28 -12 -60 5
-60 10 0 25 21 25 34 0 5 5 11 12 13 7 3 16 -13 23 -36 10 -38 14 -41 44 -41
36 0 80 19 84 35 2 11 57 33 82 34 10 0 7 -6 -9 -19 l-23 -20 35 0 c20 0 40 6
44 13 9 15 100 47 132 47 15 0 23 10 30 36 11 40 0 76 -34 109 -11 11 -28 30
-36 43 -24 34 -78 39 -132 13 -24 -11 -61 -21 -82 -21 l-40 0 37 25 c20 14 45
25 56 25 10 0 27 7 38 15 10 8 29 15 41 15 12 0 23 5 25 12 2 6 26 13 53 14
41 3 54 9 75 33 25 29 68 57 83 53 4 -1 7 4 7 10 0 9 3 8 10 -2 5 -8 12 -11
17 -7 4 4 2 16 -5 25 -35 49 -19 91 40 105 26 6 44 19 58 42 26 42 70 62 98
44 19 -12 19 -14 4 -38 -9 -14 -24 -34 -34 -44 -12 -12 -18 -33 -18 -62 0 -37
-3 -45 -18 -45 -11 0 -24 -10 -30 -22 -6 -13 -11 -17 -11 -10 -1 14 -71 17
-71 2 0 -5 5 -10 11 -10 6 0 18 -7 26 -16 13 -12 14 -22 6 -48 -5 -17 -8 -63
-6 -100 2 -38 1 -72 -4 -75 -9 -6 -31 -60 -41 -101 -4 -14 -12 -33 -18 -43
-11 -20 -51 -31 -59 -16 -4 5 -20 9 -36 9 -33 0 -49 -27 -49 -82 0 -36 -39
-78 -74 -78 -12 0 -32 -11 -44 -25 -12 -14 -32 -25 -44 -25 -28 -1 -49 -16
-73 -54 -11 -16 -34 -35 -52 -42 -29 -13 -33 -19 -33 -52 0 -52 14 -64 50 -44
40 23 124 7 128 -25 2 -13 7 -23 11 -23 3 0 15 -13 24 -30 21 -34 63 -42 74
-13 4 10 15 24 25 31 10 7 18 20 18 28 0 8 4 14 10 14 13 0 60 75 60 95 0 8 7
15 15 15 10 0 15 11 16 33 0 17 3 26 6 19 13 -32 41 -33 98 -2 66 36 79 37 99
9 18 -26 61 -49 91 -49 22 0 23 3 18 60 -3 36 -1 60 5 60 6 0 12 -5 14 -12 6
-18 38 -1 38 20 0 10 12 25 28 33 15 8 32 20 38 28 9 11 13 8 23 -19 14 -40
26 -32 23 15 -2 33 -1 35 28 35 26 0 30 -3 25 -22 -3 -13 -7 -36 -9 -53 -2
-16 -7 -42 -11 -57 -11 -41 9 -35 59 17 35 36 40 45 25 45 -13 0 -19 7 -19 24
0 14 -10 32 -22 40 -19 13 -20 19 -10 41 17 37 41 43 64 15 16 -20 21 -21 29
-9 6 10 9 7 9 -13 0 -15 -4 -30 -10 -33 -5 -3 -10 -24 -10 -45 0 -22 -7 -60
-16 -85 -17 -51 -12 -100 12 -109 8 -3 14 -12 14 -20 0 -8 5 -16 11 -18 14 -5
19 -58 8 -79 -6 -12 0 -25 21 -48 17 -17 30 -39 30 -48 0 -10 5 -25 10 -33 7
-10 10 23 10 104 0 102 -2 117 -15 112 -31 -11 -70 88 -47 119 4 6 18 10 32
10 l25 0 3 152 3 152 -35 -14 c-20 -8 -44 -15 -56 -15 -11 0 -25 -9 -32 -20
-7 -11 -20 -20 -29 -20 -29 0 -41 26 -34 73 5 30 3 47 -5 52 -16 10 -32 -9
-65 -72 -15 -29 -31 -51 -36 -48 -12 8 -42 -42 -36 -59 9 -23 -14 -36 -64 -36
-42 0 -48 -3 -59 -30 -7 -16 -18 -35 -26 -41 -8 -6 -14 -19 -14 -29 0 -10 -7
-23 -15 -30 -12 -10 -16 -8 -25 15 -6 15 -19 39 -30 53 -11 13 -20 33 -20 43
0 12 -7 19 -18 19 -21 0 -23 25 -15 138 5 71 28 102 75 102 22 0 31 -7 42 -35
8 -19 18 -54 21 -78 l7 -45 48 0 c63 0 79 17 77 83 0 28 1 56 4 64 3 10 -7 17
-32 21 -42 7 -95 45 -79 55 6 4 8 16 4 27 -4 13 0 24 12 32 15 12 13 14 -19
20 -30 6 -37 11 -37 31 0 31 -10 36 -50 25 -20 -6 -39 -6 -49 0 -13 8 -10 9
12 10 15 0 27 3 27 8 0 4 15 24 33 45 35 38 73 49 83 22 4 -8 12 -15 18 -15 7
0 19 -11 26 -25 19 -35 37 -31 44 10 4 19 11 35 16 35 6 0 10 6 10 14 0 22 17
28 38 15 16 -10 26 -8 55 10 19 12 38 28 41 37 3 8 10 13 15 9 6 -3 15 13 21
35 11 42 0 102 -21 115 -12 8 -11 39 2 68 8 18 18 24 40 23 34 -1 37 -18 9
-53 -11 -14 -20 -29 -20 -34 0 -5 19 -18 42 -30 28 -14 37 -23 28 -29 -10 -6
-9 -9 1 -13 8 -3 9 -6 4 -6 -21 -2 2 -121 23 -121 5 0 16 8 25 18 21 23 24
122 5 122 -17 1 -76 50 -60 50 7 0 26 10 42 22 l30 22 0 133 c0 82 -4 133 -10
133 -5 0 -10 11 -10 25 0 14 5 25 10 25 6 0 10 20 10 45 l0 46 -27 -26 c-15
-14 -31 -25 -34 -25 -4 0 -9 -10 -13 -22 -3 -13 -30 -49 -60 -81 -29 -33 -56
-71 -60 -85 -6 -32 -94 -125 -110 -118 -48 19 -46 20 -46 -22 0 -49 -17 -63
-41 -34 -9 12 -21 22 -26 22 -4 0 -16 16 -25 35 -17 34 -17 35 6 59 16 18 29
23 45 19 30 -8 88 25 100 57 5 14 13 40 16 58 4 18 15 37 26 42 25 14 24 35
-2 61 -24 24 -18 39 7 18 14 -11 19 -10 35 13 11 15 33 29 49 33 21 5 32 14
36 32 8 29 -2 41 -36 46 -21 3 -26 12 -32 48 -13 72 22 129 55 91 17 -21 39
-105 32 -125 -8 -19 11 -32 63 -44 l42 -11 0 105 c0 125 -15 166 -66 188 -39
16 -39 16 -17 85 13 41 14 53 4 59 -7 5 -11 22 -9 42 3 31 6 34 35 34 18 0 33
4 34 8 1 10 -73 107 -81 107 -10 -1 -60 -80 -50 -80 6 0 10 -4 10 -10 0 -5 -7
-10 -15 -10 -8 0 -15 9 -15 20 0 11 -4 20 -9 20 -17 0 -10 -114 10 -148 23
-41 23 -42 1 -42 -10 0 -31 14 -47 30 -16 17 -35 30 -42 30 -13 0 -15 4 -18
53 -1 18 3 27 13 27 10 0 12 6 7 18 -4 9 -10 36 -12 60 -5 41 -9 45 -58 68
-57 27 -68 48 -58 110 4 23 0 36 -14 50 -16 16 -18 25 -11 52 12 45 43 44 58
-3 6 -19 20 -37 30 -40 10 -3 20 -16 22 -27 5 -36 26 -32 33 6 5 26 14 37 35
45 15 5 31 19 35 30 3 12 13 21 21 21 12 0 12 -4 4 -20 -8 -16 -8 -20 3 -20 8
0 17 11 19 25 4 17 1 25 -8 25 -17 0 -48 46 -39 60 3 5 14 10 23 10 10 0 44
19 76 43 58 42 58 42 29 48 -63 13 -122 -11 -123 -49 0 -22 -63 -76 -90 -78
-14 -1 -29 -3 -35 -5 -21 -6 -65 25 -65 45 0 12 -7 30 -15 40 -12 16 -17 17
-30 6 -13 -10 -15 -9 -15 9 0 11 5 21 10 21 21 0 8 22 -20 34 -17 7 -27 16
-23 21 5 5 0 3 -9 -4 -13 -9 -16 -22 -13 -42 7 -38 -13 -46 -60 -24 -36 18
-37 21 -18 73 3 7 -3 12 -17 12 -19 0 -20 2 -10 15 13 15 14 14 -35 30 -8 2
-14 1 -14 -3 1 -4 0 -11 -1 -17 -1 -5 -1 -29 0 -53 2 -58 -27 -83 -90 -80 -39
3 -45 0 -45 -17 0 -11 14 -28 31 -40 48 -30 58 -51 43 -87 -7 -18 -15 -25 -19
-18 -10 16 -60 1 -60 -19 0 -14 -2 -14 -10 -1 -7 11 -10 6 -10 -20 0 -26 3
-31 10 -20 7 12 12 12 22 2 6 -6 8 -12 3 -12 -4 0 0 -9 10 -20 10 -11 19 -40
21 -65 l4 -45 -54 0 c-50 0 -55 2 -64 28 -5 15 -36 54 -69 87 -33 33 -65 75
-73 93 -12 30 -40 45 -40 21 0 -6 -8 -8 -19 -4 -10 3 -41 7 -68 9 -41 3 -52 0
-62 -16 -6 -10 -9 -23 -6 -29 4 -5 -5 -23 -19 -40 -14 -17 -26 -34 -26 -38 0
-5 -11 -20 -24 -34 l-24 -25 -12 23 c-14 25 -9 61 7 58 21 -4 22 26 2 40 -17
13 -18 15 -4 21 11 4 14 15 12 41 -5 40 -12 50 -44 60 -20 6 -23 3 -23 -25 0
-26 -6 -33 -33 -45 -19 -8 -45 -25 -58 -39 -17 -18 -35 -26 -59 -26 -29 0 -37
-5 -48 -30 -20 -43 -31 -137 -18 -150 5 -5 23 -10 38 -10 15 0 28 -4 28 -9 0
-10 53 -21 122 -26 25 -1 68 -7 95 -13 26 -5 60 -10 75 -10 29 0 79 -31 74
-47 -1 -5 -12 -11 -24 -13 -12 -2 -20 -8 -17 -13 4 -5 -1 -9 -9 -9 -9 0 -16
-4 -16 -10 0 -5 -9 -1 -20 10 -11 11 -32 21 -47 22 -16 0 -44 2 -63 4 -19 1
-66 2 -105 2 -115 1 -119 2 -127 15 -5 6 -7 19 -4 28 6 28 -11 46 -31 33 -13
-8 -19 -26 -20 -69 -1 -32 -4 -64 -7 -71 -2 -6 -29 -15 -58 -19 -55 -8 -100
-24 -65 -25 9 0 17 -4 17 -8 0 -4 20 -16 45 -26 40 -17 45 -22 45 -51 0 -33
-22 -61 -39 -51 -15 10 -40 -5 -34 -20 6 -17 -24 -67 -36 -60 -5 3 -27 -8 -50
-24 -58 -42 -76 -40 -86 12 -3 13 -9 24 -15 26 -5 2 -10 10 -10 18 0 19 -39
18 -46 -1 -4 -8 -16 -15 -29 -15 -18 0 -22 5 -20 25 4 31 -16 48 -48 40 -19
-5 -29 -18 -41 -54 -8 -26 -13 -57 -9 -69 3 -13 1 -22 -6 -22 -6 0 -11 -7 -11
-15 0 -8 -4 -15 -10 -15 -5 0 -10 9 -10 20 0 13 -9 22 -25 26 -29 7 -36 51 -9
61 9 3 12 9 7 12 -5 3 -14 19 -22 36 -12 28 -14 29 -26 11 -8 -10 -18 -15 -24
-11 -7 3 -11 -3 -11 -15 0 -12 -4 -18 -10 -15 -5 3 -10 15 -10 25 0 13 -5 17
-14 14 -15 -6 -17 -89 -2 -112 4 -7 -1 -27 -12 -46 -11 -18 -23 -48 -27 -65
-9 -42 -25 -49 -25 -11 0 18 -6 33 -15 36 -26 10 -29 44 -5 69 21 22 26 48 21
108 -2 27 -21 20 -21 -8 0 -18 -5 -25 -20 -25 -13 0 -20 7 -20 19 0 22 -16 36
-25 22 -3 -5 -31 -10 -63 -9 -80 0 -80 0 -88 -24 -6 -20 -8 -20 -19 -5 -13 18
-36 22 -49 10 -4 -5 -25 -8 -47 -9 -35 0 -38 2 -33 20 4 11 13 27 21 35 10 10
13 26 9 50 -3 23 0 47 9 65 22 42 20 86 -4 86 -11 0 -26 -7 -34 -15 -13 -13
-17 -13 -27 0 -7 8 -18 32 -25 52 l-13 38 -17 -42 c-10 -24 -23 -43 -30 -43
-7 0 -16 -6 -18 -12 -4 -10 -8 -10 -15 1 -5 7 -15 10 -21 6 -17 -10 -61 3 -61
19 0 7 -26 21 -60 31 -46 14 -57 21 -49 31 5 7 6 15 1 18 -19 12 -111 16 -173
8 -65 -8 -119 0 -119 19 0 5 -13 9 -28 9 -23 0 -33 8 -48 35 -16 31 -23 35
-59 35 -37 0 -41 3 -43 27 -1 16 6 36 19 49 14 15 17 24 9 29 -6 4 -16 18 -21
32 -8 22 -4 30 28 65 l38 39 98 -3 c55 -2 101 -6 104 -10 2 -5 15 -8 28 -8 13
0 27 -4 30 -10 11 -17 156 -9 203 13 l42 19 0 77 c0 45 6 87 14 103 8 15 16
48 18 75 2 41 0 48 -15 47 -17 -2 -21 7 -17 35 2 19 25 41 43 41 8 0 18 12 22
27 l6 27 12 -25 c7 -13 25 -30 40 -37 30 -15 35 -41 13 -75 -8 -12 -18 -49
-21 -83 -6 -51 -5 -62 9 -67 9 -4 16 -14 16 -23 0 -19 21 -86 30 -94 10 -10
10 -30 -2 -30 -6 0 -3 -9 7 -20 10 -11 21 -20 25 -20 4 0 7 29 5 64 -3 77 1
87 35 74 14 -6 20 -12 13 -15 -8 -3 1 -18 25 -40 34 -32 41 -35 85 -30 26 2
50 0 53 -4 3 -5 13 -9 22 -9 10 0 22 -10 27 -21 8 -17 21 -22 63 -25 42 -3 52
-1 52 11 0 9 7 29 15 44 18 37 2 84 -34 102 -74 34 -96 50 -99 68 -3 19 2 21
55 21 58 0 60 -1 76 -35 l17 -36 65 7 c55 6 66 4 71 -10 3 -9 10 -16 15 -16
15 0 10 32 -8 45 -16 12 -16 14 0 38 9 14 30 33 46 43 41 24 47 52 13 65 -15
6 -34 17 -43 25 -9 8 -31 16 -49 19 -18 2 -35 6 -38 9 -11 12 -52 -39 -62 -76
-9 -31 -15 -38 -35 -38 -36 0 -35 47 1 60 36 14 29 49 -12 64 -29 10 -124 106
-124 125 0 16 -46 29 -64 19 -12 -7 -25 -7 -40 1 -23 12 -95 35 -138 45 -17 4
-28 13 -28 23 0 9 -7 25 -17 35 -9 10 -21 28 -27 40 -18 36 -42 34 -50 -4 l-7
-33 -29 35 c-17 19 -28 43 -26 53 2 9 -2 17 -9 17 -7 0 -16 6 -18 13 -4 8 -11
5 -24 -10 -10 -11 -33 -24 -50 -28 -28 -6 -33 -4 -33 13 0 11 7 36 15 55 20
48 20 87 -1 87 -10 0 -14 6 -10 15 5 13 -74 15 -669 15 l-673 0 -7 -31 -7 -32
-87 7 c-71 5 -92 3 -120 -11 l-35 -18 -33 32 c-18 17 -33 36 -33 42 0 6 -20
11 -45 11 -49 0 -53 -4 -29 -32 19 -20 20 -19 -51 -37 -39 -11 -105 -15 -105
-7 0 2 7 20 15 40 l15 36 -281 0 c-257 0 -283 -2 -295 -17 -20 -27 -17 -31 26
-44 28 -9 42 -19 46 -35 8 -30 43 -42 59 -20 16 21 21 20 58 -6 21 -15 32 -18
35 -10 2 7 14 12 27 12 29 0 65 -43 65 -77 0 -24 -2 -25 -42 -18 -24 3 -65 6
-92 6 -29 -1 -53 4 -57 11 -5 8 -22 -1 -53 -30 -25 -23 -49 -42 -54 -42 -5 0
-30 6 -56 14 -51 16 -53 16 -63 16 -4 0 -2 5 5 12 25 25 12 43 -49 70 -54 24
-60 30 -55 50 3 13 3 17 0 11 -3 -7 -21 -13 -39 -13 -25 0 -46 11 -82 41 -26
23 -52 48 -56 55 -10 17 -247 20 -247 3 0 -5 -15 -16 -32 -24 -18 -7 -41 -27
-51 -44 -18 -31 -47 -42 -47 -18 0 8 9 22 20 32 11 10 20 23 20 28 0 5 8 16
18 23 14 11 -14 13 -181 14 l-198 0 21 -30 c12 -16 28 -30 36 -30 8 0 20 -13
25 -30 8 -21 18 -30 33 -30 54 0 64 -60 13 -78 -48 -17 -61 -15 -87 13 -13 14
-20 25 -16 25 14 0 -25 54 -60 83 -22 18 -34 37 -34 53 l0 24 -511 0 c-337 0
-508 -3 -504 -10 3 -5 11 -10 16 -10 17 0 69 -54 69 -71 0 -9 13 -22 28 -28
34 -14 62 -42 103 -99 16 -23 34 -40 39 -37 6 3 10 1 10 -4 0 -6 7 -11 15 -11
11 0 14 -7 10 -22 -4 -17 3 -32 25 -57 28 -30 30 -35 17 -55 -13 -19 -24 -21
-136 -22 -95 -1 -126 -5 -147 -18 -20 -14 -28 -15 -39 -6 -12 10 -12 16 -1 39
8 15 18 45 21 66 4 22 12 49 17 59 9 17 7 18 -26 13 -39 -6 -46 6 -25 44 7 15
7 24 -1 33 -8 10 -6 15 10 19 34 9 23 35 -19 48 -47 14 -68 8 -81 -25 -11 -30
-15 -32 -69 -41 -34 -6 -42 -4 -39 6 2 7 15 16 28 19 18 4 26 15 32 40 12 60
0 76 -54 72 -14 -1 -18 6 -18 28 0 30 0 30 -59 30 l-60 0 0 -227z m4261 151
c11 -7 5 -81 -7 -92 -4 -4 -32 -7 -63 -7 -45 0 -66 6 -99 28 -24 15 -43 32
-43 37 0 6 15 20 33 31 27 17 42 19 101 14 38 -3 73 -8 78 -11z m-894 -56 c18
-10 53 -18 78 -18 51 0 84 -14 84 -35 0 -8 -14 -31 -32 -51 -30 -34 -35 -36
-76 -30 -46 6 -76 22 -67 36 8 12 -17 17 -45 9 -14 -4 -18 -7 -10 -8 9 -1 32
-15 52 -32 21 -16 43 -29 50 -28 7 1 21 -1 31 -6 12 -5 24 -2 36 9 17 16 23
15 92 -9 40 -14 82 -25 94 -25 12 0 34 -11 49 -25 24 -23 27 -30 21 -65 -6
-34 -4 -39 9 -34 10 4 16 1 16 -7 0 -11 2 -11 8 -2 6 9 17 5 43 -17 45 -38 67
-38 81 1 l10 30 16 -23 c9 -13 21 -26 26 -30 17 -12 74 -9 95 4 30 18 97 -5
105 -37 9 -33 -15 -115 -36 -126 -10 -5 -18 -15 -18 -22 0 -16 -46 -58 -84
-77 -25 -13 -29 -13 -42 4 -7 11 -11 23 -8 27 7 12 -35 31 -53 25 -22 -9 -11
-126 13 -141 9 -5 25 -17 37 -26 20 -15 20 -16 -9 -36 -25 -18 -36 -19 -89
-12 -37 5 -84 4 -123 -2 -34 -6 -77 -8 -95 -5 -41 9 -77 39 -77 65 0 13 -10
26 -26 33 -23 11 -25 16 -18 47 3 20 6 55 5 78 -2 35 2 45 23 58 14 9 30 14
36 10 12 -7 40 -14 92 -22 33 -5 39 -3 49 21 11 23 10 32 -5 59 -10 18 -25 37
-33 44 -8 6 -15 19 -16 30 -1 16 -7 18 -46 13 -43 -5 -46 -7 -43 -33 3 -27
-12 -38 -21 -14 -3 7 -6 5 -6 -5 -1 -11 -9 -18 -21 -18 -15 0 -20 7 -20 24 0
14 5 28 10 31 6 4 7 11 4 17 -4 6 -10 25 -13 42 -7 31 -29 42 -106 51 -16 2
-34 10 -40 18 -18 24 -57 29 -97 12 -47 -19 -68 -19 -68 0 0 8 5 15 10 15 19
0 10 37 -16 65 -20 22 -31 26 -55 21 -98 -20 -89 -22 -89 18 0 28 7 43 33 66
40 37 90 48 112 26 9 -9 28 -19 42 -22 20 -5 30 -1 49 23 27 34 46 37 92 11z
m-2618 -32 c0 -25 -27 -43 -43 -27 -12 12 9 51 28 51 9 0 15 -10 15 -24z m636
-49 c3 -22 -30 -42 -43 -24 -8 10 -9 21 -4 43 3 13 44 -3 47 -19z m668 1 c8
-14 6 -22 -9 -37 -21 -20 -54 -25 -167 -22 -63 1 -68 3 -74 26 -12 50 -5 53
122 52 99 -2 119 -5 128 -19z m296 -54 c0 -18 -23 -44 -39 -44 -11 0 -21 -7
-25 -15 -7 -18 -26 -20 -26 -2 0 16 58 67 76 67 8 0 14 -3 14 -6z m-2080 -34
c0 -5 -10 -10 -22 -9 -22 0 -22 1 -3 9 11 5 21 9 23 9 1 1 2 -3 2 -9z m2833
-28 c16 -15 16 -16 -10 -34 -32 -20 -56 -23 -84 -7 -19 10 -19 11 8 37 30 29
55 30 86 4z m-2223 -7 c0 -8 -9 -15 -20 -15 -11 0 -20 7 -20 15 0 8 9 15 20
15 11 0 20 -7 20 -15z m4028 -53 c34 -32 42 -46 42 -74 0 -27 -5 -37 -20 -41
-15 -4 -20 -14 -20 -39 0 -19 -7 -43 -15 -54 -13 -18 -14 -16 -15 23 0 23 -5
54 -12 70 -6 15 -12 30 -12 33 -1 3 -7 19 -14 36 -13 31 -3 84 16 84 5 0 27
-17 50 -38z m-3923 -30 c46 -7 51 -13 24 -27 -18 -10 -41 -12 -74 -7 -51 7
-70 26 -36 37 12 3 21 13 21 21 0 8 7 14 15 14 8 0 16 6 16 13 1 6 4 -1 8 -18
4 -19 13 -31 26 -33z m115 -6 c0 -7 9 -25 20 -39 l20 -25 -22 -28 c-12 -16
-24 -31 -26 -34 -2 -3 -19 13 -38 34 -23 27 -31 43 -24 50 5 5 10 18 10 29 0
10 4 16 9 13 5 -3 14 1 21 9 14 16 30 11 30 -9z m2765 -6 c0 -7 -6 -15 -12
-17 -8 -3 -13 4 -13 17 0 13 5 20 13 18 6 -3 12 -11 12 -18z m-641 -71 c-3 -5
-10 -7 -15 -3 -5 3 -7 10 -3 15 3 5 10 7 15 3 5 -3 7 -10 3 -15z m32 -16 c-11
-11 -19 6 -11 24 8 17 8 17 12 0 3 -10 2 -21 -1 -24z m-2558 -7 c15 -8 34 -26
42 -40 8 -16 20 -25 29 -22 9 2 37 7 64 11 l47 6 0 -30 c0 -32 30 -61 62 -61
9 0 19 -8 22 -17 8 -28 -8 -98 -22 -97 -6 1 -21 2 -32 3 -12 0 -25 12 -30 26
-7 18 -17 25 -35 25 -14 0 -30 9 -37 20 -7 11 -17 20 -23 20 -17 1 -55 37 -55
54 0 8 -15 22 -34 31 -35 17 -35 17 -64 -16 -31 -35 -62 -35 -62 -1 0 18 38
52 73 65 9 3 17 13 17 22 0 19 4 19 38 1z m480 -61 c1 -22 -2 -25 -28 -25 -34
0 -41 25 -13 45 23 17 38 10 41 -20z m3685 -44 c3 -14 0 -17 -14 -14 -20 5
-24 15 -12 26 11 12 21 8 26 -12z m-3497 -33 c-10 -6 -20 -7 -24 -3 -9 8 20
25 31 18 5 -3 2 -10 -7 -15z m-816 -7 c0 -10 -7 -22 -16 -25 -23 -9 -24 -8
-24 19 0 18 5 25 20 25 13 0 20 -7 20 -19z m1848 -93 c-4 -33 -52 -48 -76 -24
-16 16 -16 18 2 32 11 8 33 14 49 14 24 0 28 -4 25 -22z m-240 -81 c-32 -84
-41 -98 -55 -93 -7 3 -15 1 -18 -5 -4 -5 -11 -7 -16 -4 -5 4 -9 1 -9 -4 0 -23
-18 -10 -23 16 -7 38 1 51 31 55 21 2 32 13 47 45 17 38 38 55 57 46 4 -2 -2
-27 -14 -56z m693 -71 c26 -30 25 -39 -5 -47 -19 -5 -26 -2 -35 17 -6 13 -15
24 -21 24 -5 0 -10 7 -10 15 0 24 48 18 71 -9z m-1824 -18 c6 -7 13 -26 17
-41 4 -16 18 -40 31 -53 29 -29 36 -94 10 -94 -8 0 -15 -9 -15 -20 0 -11 7
-20 15 -20 8 0 15 7 15 15 0 17 16 20 25 5 3 -5 16 -10 29 -10 13 0 31 -11 42
-27 17 -25 19 -34 9 -76 -9 -41 -16 -51 -43 -62 -31 -14 -33 -13 -54 15 -13
19 -31 30 -45 30 -13 0 -35 12 -48 26 -34 38 -37 41 -71 72 -18 16 -35 39 -39
52 -7 22 -6 23 44 16 45 -6 51 -4 52 11 2 35 -3 68 -12 78 -12 12 -11 52 1 76
12 22 24 24 37 7z m5643 -43 c0 -8 -4 -15 -10 -15 -5 0 -10 7 -10 15 0 8 5 15
10 15 6 0 10 -7 10 -15z m-2250 -19 c0 -7 -4 -16 -10 -22 -12 -12 -82 -5 -74
7 3 5 9 7 13 4 5 -2 16 4 26 15 17 19 45 17 45 -4z m-2120 -52 c0 -7 -5 -16
-11 -20 -14 -8 -44 21 -35 34 8 14 46 3 46 -14z m4583 -5 c-7 -7 -19 -9 -29
-5 -16 6 -16 8 2 21 22 16 45 2 27 -16z m-3993 11 c11 0 30 -16 45 -37 24 -37
24 -38 6 -56 -18 -18 -20 -18 -70 -1 -49 18 -51 20 -51 56 0 36 13 50 38 42 8
-2 22 -4 32 -4z m4007 -54 c21 -7 21 -8 5 -35 -12 -21 -28 -31 -61 -39 -27 -6
-50 -7 -55 -2 -16 16 -16 63 0 74 16 12 78 14 111 2z m448 -56 c3 -5 -1 -10
-9 -10 -9 0 -16 5 -16 10 0 6 4 10 9 10 6 0 13 -4 16 -10z m109 -22 c7 -12 5
-21 -8 -33 -9 -10 -14 -25 -11 -35 6 -20 -10 -36 -20 -20 -3 5 -16 10 -27 10
-25 0 -47 27 -41 51 3 10 18 21 34 24 16 4 31 11 35 16 8 13 25 7 38 -13z
m-5015 -13 c16 -8 31 -22 35 -30 9 -25 7 -55 -4 -55 -6 0 -16 -11 -22 -25 -8
-18 -17 -24 -30 -19 -22 7 -48 -12 -48 -34 0 -8 -14 -28 -32 -44 -25 -22 -41
-28 -79 -28 -26 0 -59 6 -75 14 -19 10 -33 12 -45 5 -10 -5 -36 -9 -59 -9 -35
0 -42 4 -50 26 -6 15 -19 39 -30 54 -26 37 -26 94 0 120 25 25 126 28 170 5
31 -16 59 -12 170 20 60 17 66 17 99 0z m4841 -58 c-25 -26 -34 -18 -18 15 9
19 16 24 25 16 9 -7 8 -15 -7 -31z m-5664 -18 c9 -15 -19 -41 -38 -34 -21 8
-11 45 13 45 10 0 21 -5 25 -11z m6008 -14 c25 -11 36 -22 36 -36 0 -18 -4
-20 -32 -14 -18 4 -33 8 -33 9 0 0 -5 11 -12 22 -6 12 -9 25 -6 28 8 8 5 8 47
-9z m-586 -33 c3 -31 2 -32 -33 -32 -22 0 -38 -6 -41 -15 -5 -11 -10 -12 -25
-2 -10 6 -19 17 -19 24 0 18 29 43 44 37 7 -3 19 2 26 11 21 25 45 14 48 -23z
m389 -14 c9 -1 12 -18 10 -55 -2 -48 0 -53 19 -53 39 0 37 -28 -4 -49 -39 -19
-61 -17 -75 5 -10 17 -44 18 -50 2 -3 -9 -11 -6 -26 10 l-22 22 23 0 c29 0 13
14 -34 29 -81 26 -73 61 16 69 32 2 61 11 68 19 8 9 21 12 37 8 14 -3 32 -6
38 -7z m-607 -8 c0 -5 6 -10 14 -10 17 0 21 -5 30 -43 6 -26 5 -28 -16 -22
-35 11 -70 49 -62 68 7 18 34 24 34 7z m887 -129 c18 -18 37 -30 42 -26 6 3
19 0 31 -7 25 -16 55 0 55 28 1 41 36 61 49 28 4 -10 -7 -29 -32 -53 -22 -20
-45 -53 -51 -74 -14 -42 -24 -46 -44 -16 -9 12 -18 16 -21 10 -7 -11 -75 -3
-94 12 -7 6 -11 19 -9 29 3 10 1 18 -3 18 -5 0 -12 10 -16 23 -4 12 -15 29
-25 38 -28 24 -24 27 34 25 44 -2 57 -7 84 -35z m-780 23 c-3 -3 -12 -4 -19
-1 -8 3 -5 6 6 6 11 1 17 -2 13 -5z m-5199 -36 c3 -23 -3 -30 -35 -45 -21 -9
-41 -19 -45 -21 -10 -5 -20 36 -13 59 7 23 39 39 70 36 14 -1 21 -11 23 -29z
m4672 1 c0 -5 -7 -9 -15 -9 -15 0 -20 12 -9 23 8 8 24 -1 24 -14z m472 -2 c-2
-12 4 -17 23 -17 25 0 29 -7 25 -43 -1 -10 3 -24 8 -30 6 -7 12 -25 14 -42 3
-27 8 -31 43 -36 34 -5 37 -7 18 -14 -13 -4 -23 -12 -23 -17 0 -17 -106 -2
-147 22 -26 14 -50 21 -64 17 -14 -4 -35 1 -56 14 -18 11 -37 18 -43 14 -5 -3
-10 0 -10 7 0 16 57 18 84 2 27 -16 119 13 111 36 -4 8 -9 37 -12 64 -5 43 -4
48 13 44 11 -2 18 -11 16 -21z m-4992 -7 c-8 -5 -17 -7 -19 -4 -3 3 1 9 9 14
8 5 17 7 19 4 3 -3 -1 -9 -9 -14z m4790 0 c0 -19 -20 -27 -33 -13 -8 7 11 33
24 33 5 0 9 -9 9 -20z m310 5 c0 -8 -4 -15 -10 -15 -5 0 -10 7 -10 15 0 8 5
15 10 15 6 0 10 -7 10 -15z m-429 -13 c26 -22 20 -52 -11 -52 -11 0 -20 -7
-20 -15 0 -26 -18 -17 -45 22 -31 46 -31 50 -2 56 44 8 55 7 78 -11z m719 -2
c0 -5 -4 -10 -10 -10 -5 0 -10 5 -10 10 0 6 5 10 10 10 6 0 10 -4 10 -10z
m254 -15 c3 -8 1 -15 -4 -15 -6 0 -10 7 -10 15 0 8 2 15 4 15 2 0 6 -7 10 -15z
m-284 -9 c0 -2 -7 -22 -15 -45 -14 -42 -14 -43 18 -86 26 -36 38 -44 65 -45
17 0 32 5 32 10 0 16 32 11 46 -7 20 -27 17 -36 -26 -81 -34 -34 -45 -40 -63
-33 -12 4 -28 6 -34 4 -9 -3 -11 4 -7 26 l6 30 -48 -4 c-51 -4 -60 -1 -82 27
-12 15 -11 22 7 47 26 37 27 63 1 86 -19 18 -27 55 -13 68 7 7 113 10 113 3z
m130 -41 c0 -20 20 -19 37 3 12 15 13 14 11 -13 -2 -24 -8 -31 -28 -33 -35 -3
-54 11 -45 37 7 24 25 28 25 6z m-2363 -31 c-3 -3 -12 -4 -19 -1 -8 3 -5 6 6
6 11 1 17 -2 13 -5z m-3627 -39 c6 -8 9 -18 6 -23 -9 -16 -65 -35 -82 -28 -13
5 -11 11 13 35 32 34 45 37 63 16z m660 -12 c20 -18 26 -58 12 -81 -5 -7 -26
-13 -48 -15 -36 -2 -39 0 -42 25 -2 18 6 36 25 57 15 17 29 31 30 31 2 0 12
-8 23 -17z m4367 6 c6 -6 44 -14 85 -17 52 -5 82 -14 100 -28 31 -24 26 -35
-22 -57 -51 -22 -88 -26 -101 -11 -6 8 -19 14 -29 14 -10 0 -35 8 -56 17 -37
16 -44 18 -70 21 -7 1 -14 18 -16 37 l-4 35 51 0 c28 0 56 -5 62 -11z m-4907
-31 c18 -19 18 -23 5 -31 -11 -6 -25 -3 -41 7 -26 18 -31 32 -11 39 21 9 26 8
47 -15z m6259 -5 c-8 -9 -16 -10 -22 -4 -13 13 0 31 19 24 11 -4 12 -8 3 -20z
m-261 -58 c-15 -8 -34 -12 -42 -9 -26 10 -7 24 32 24 l37 -1 -27 -14z m-5937
-18 c-1 -4 -1 -17 -2 -29 0 -22 -1 -22 -9 -3 -12 28 -12 47 1 43 6 -2 10 -7
10 -11z m59 9 c0 -2 -7 -7 -16 -10 -8 -3 -12 -2 -9 4 6 10 25 14 25 6z m5892
-57 c23 -12 62 -22 87 -23 43 -1 46 -3 53 -36 4 -19 4 -68 1 -108 -6 -71 -7
-74 -39 -90 -40 -19 -64 -5 -64 38 0 17 -8 33 -22 43 l-23 15 19 33 c11 18 15
34 10 36 -35 13 -99 51 -107 64 -14 23 -2 49 23 49 11 0 39 -9 62 -21z m-452
-23 c0 -3 -4 -8 -10 -11 -5 -3 -10 -1 -10 4 0 6 5 11 10 11 6 0 10 -2 10 -4z
m-1160 -28 c0 -18 -2 -20 -9 -8 -6 8 -7 18 -5 22 9 14 14 9 14 -14z m252 -42
c-2 -43 1 -56 12 -56 19 0 28 -14 20 -34 -8 -21 -33 -20 -41 2 -4 9 -13 23
-21 31 -20 20 -1 126 21 118 8 -3 11 -25 9 -61z m-4015 24 c27 0 8 -22 -32
-36 -22 -7 -41 -14 -41 -14 -1 0 -1 8 0 18 1 22 27 43 44 37 8 -3 20 -5 29 -5z
m4358 -10 c3 -5 -3 -10 -14 -10 -11 0 -23 5 -26 10 -3 6 3 10 14 10 11 0 23
-4 26 -10z m380 -13 c24 -14 30 -34 15 -52 -8 -9 -8 -15 0 -20 15 -9 12 -45
-4 -45 -8 0 -18 13 -24 28 -5 16 -17 36 -26 45 -14 14 -15 20 -4 37 15 23 16
23 43 7z m-785 -53 c0 -14 -3 -14 -15 -4 -8 7 -15 14 -15 16 0 2 7 4 15 4 8 0
15 -7 15 -16z m1122 -41 c-10 -4 -9 -8 5 -19 17 -12 16 -13 -4 -7 -30 7 -29
34 1 32 6 0 5 -3 -2 -6z m-871 -37 c5 -17 15 -34 24 -38 19 -11 20 -47 0 -54
-8 -4 -22 -1 -30 6 -8 7 -15 9 -15 5 0 -4 -7 -2 -15 5 -19 16 -19 46 0 54 12
4 13 11 5 31 -9 22 -7 26 7 23 9 -2 20 -16 24 -32z m909 -28 c-12 -10 -25 -17
-27 -14 -8 8 30 45 40 39 6 -3 0 -15 -13 -25z m-1350 6 c0 -8 -4 -12 -10 -9
-5 3 -10 10 -10 16 0 5 5 9 10 9 6 0 10 -7 10 -16z m1218 -31 c4 -29 -25 -37
-57 -16 l-26 17 30 12 c37 16 49 13 53 -13z m45 -2 c-3 -12 -11 -17 -19 -14
-15 5 -15 24 1 35 14 11 24 0 18 -21z m827 19 c0 -5 -12 -10 -26 -10 -14 0
-23 4 -19 10 3 6 15 10 26 10 10 0 19 -4 19 -10z m-2550 -18 c0 -11 -71 -42
-82 -36 -16 10 -8 20 20 22 15 1 29 7 30 12 4 12 32 14 32 2z m125 -2 c3 -5
-1 -10 -9 -10 -8 0 -18 5 -21 10 -3 6 1 10 9 10 8 0 18 -4 21 -10z m235 -28
c0 -25 -21 -52 -40 -52 -23 0 -23 1 -9 51 10 33 14 36 30 26 11 -7 19 -18 19
-25z m1435 8 c8 -24 -11 -60 -30 -60 -18 0 -18 7 -4 49 13 36 25 40 34 11z
m-1058 -8 c9 -16 7 -21 -17 -36 -33 -19 -45 -9 -36 30 8 29 36 32 53 6z m63
-12 c0 -5 -9 -10 -21 -10 -11 0 -17 5 -14 10 3 6 13 10 21 10 8 0 14 -4 14
-10z m79 -19 c8 -14 6 -22 -9 -36 -23 -20 -40 -12 -40 19 0 39 31 51 49 17z
m393 -71 c13 -23 24 -30 46 -30 16 0 35 -7 42 -15 19 -23 6 -90 -24 -126 -28
-33 -28 -58 0 -90 8 -8 14 -25 14 -37 0 -14 6 -22 18 -22 9 0 23 -9 29 -19 11
-18 8 -19 -35 -23 -47 -5 -79 12 -66 34 11 17 6 78 -6 93 -7 8 -23 15 -37 15
-29 0 -39 21 -23 50 9 16 18 21 36 17 19 -3 24 0 24 18 0 28 -32 65 -57 65
-12 0 -25 13 -35 35 -15 35 -15 35 11 49 38 20 44 19 63 -14z m-442 16 c0 -20
-16 -36 -36 -36 -26 0 -30 10 -12 28 11 11 48 17 48 8z m-673 -53 c-3 -10 -5
-4 -5 12 0 17 2 24 5 18 2 -7 2 -21 0 -30z m1700 -36 c2 -76 -26 -137 -43 -92
-4 8 -13 15 -20 15 -8 0 -19 12 -25 27 -11 29 -3 83 12 83 5 0 8 6 7 13 -2 6
5 11 14 9 9 -1 20 2 23 9 14 21 30 -11 32 -64z m-1084 46 c3 -5 -5 -28 -17
-53 -16 -33 -30 -48 -54 -55 -17 -6 -38 -20 -46 -30 -22 -30 -30 1 -13 50 12
34 19 40 45 43 19 2 36 12 46 28 17 24 31 30 39 17z m-3 -113 c0 -5 -4 -10
-10 -10 -5 0 -10 5 -10 10 0 6 5 10 10 10 6 0 10 -4 10 -10z m866 -18 c-8 -13
33 -58 41 -46 5 6 29 12 55 12 44 2 47 1 53 -29 5 -20 3 -34 -4 -39 -7 -4 -9
-15 -5 -25 5 -13 4 -16 -4 -11 -7 4 -12 14 -12 22 0 8 -5 14 -10 14 -6 0 -16
11 -22 25 -10 23 -15 24 -63 19 -47 -6 -52 -4 -68 19 -21 32 -21 41 -2 33 8
-3 15 -1 15 4 0 6 7 10 16 10 8 0 13 -4 10 -8z m-426 -127 c0 -33 -41 -51 -71
-32 -17 10 -22 9 -30 -5 -14 -26 -69 -24 -76 2 -4 15 -14 20 -41 20 -19 0 -32
3 -29 7 4 3 23 6 44 5 20 -1 41 3 48 8 6 5 33 10 60 13 28 2 60 4 73 5 17 2
22 -3 22 -23z m-1280 -34 c0 -5 8 -11 19 -14 20 -5 33 -48 20 -69 -6 -9 -12
-3 -20 20 -6 17 -17 32 -25 32 -8 0 -14 9 -14 20 0 11 5 20 10 20 6 0 10 -4
10 -9z m1710 5 c0 -11 -19 -15 -25 -6 -3 5 1 10 9 10 9 0 16 -2 16 -4z m-30
-77 c0 -10 -53 -12 -63 -3 -3 4 1 18 10 31 l17 25 18 -22 c10 -12 18 -26 18
-31z m390 -132 c0 -22 -16 -47 -31 -47 -13 0 -19 32 -9 51 15 27 40 24 40 -4z
m-713 -53 c3 -8 1 -29 -4 -47 -9 -30 -10 -31 -20 -12 -12 22 -6 75 8 75 6 0
12 -7 16 -16z m-1100 -170 c-3 -3 -12 -4 -19 -1 -8 3 -5 6 6 6 11 1 17 -2 13
-5z m2153 -4 c0 -5 -5 -10 -11 -10 -5 0 -7 5 -4 10 3 6 8 10 11 10 2 0 4 -4 4
-10z m-456 -76 c9 -22 8 -23 -14 -17 -21 5 -25 15 -13 26 11 11 20 8 27 -9z
m-34 -75 c0 -10 -4 -19 -10 -19 -5 0 -10 12 -10 26 0 14 4 23 10 19 6 -3 10
-15 10 -26z m-120 -159 c0 -5 -9 -10 -21 -10 -11 0 -17 5 -14 10 3 6 13 10 21
10 8 0 14 -4 14 -10z m-1843 -447 c-2 -16 -4 -5 -4 22 0 28 2 40 4 28 2 -13 2
-35 0 -50z m-439 17 c12 -11 28 -20 36 -20 8 0 18 -4 21 -10 9 -15 -27 -11
-49 5 -11 8 -30 15 -42 15 -12 0 -27 7 -34 15 -20 24 41 19 68 -5z m419 -127
c-3 -10 -5 -4 -5 12 0 17 2 24 5 18 2 -7 2 -21 0 -30z m250 -179 c3 -8 1 -20
-4 -25 -14 -14 -43 0 -43 22 0 24 38 26 47 3z m64 -77 c-1 -4 -1 -16 -1 -27 0
-23 -18 -27 -26 -5 -8 20 3 48 17 43 6 -2 10 -7 10 -11z m-3853 -196 c20 -28
23 -29 49 -16 39 18 76 25 88 17 6 -4 18 -19 28 -34 10 -16 26 -28 37 -28 29
0 31 -13 4 -39 -22 -21 -25 -22 -41 -6 -30 30 -136 -6 -131 -45 1 -8 -4 -26
-12 -40 -8 -14 -15 -36 -17 -49 -2 -20 1 -22 20 -16 61 19 62 18 63 -19 l0
-35 -95 -3 c-91 -3 -95 -4 -101 -27 -6 -27 -30 -41 -30 -18 0 8 -6 19 -13 25
-9 8 -16 6 -25 -8 -10 -17 -15 -18 -38 -8 -23 11 -28 10 -40 -7 -17 -23 -18
-69 -1 -82 6 -6 25 -13 40 -17 l29 -7 -7 -72 c-10 -105 -33 -146 -59 -105 -8
13 -7 26 1 48 11 28 9 32 -28 63 -21 19 -39 38 -39 43 0 28 -81 57 -94 35 -4
-6 -20 -8 -35 -5 -33 7 -49 -10 -31 -31 17 -21 4 -46 -46 -87 -38 -32 -48 -36
-70 -28 -13 5 -30 9 -36 7 -6 -1 -17 8 -24 21 -18 35 6 75 56 95 36 14 39 18
31 39 -4 13 -18 28 -31 34 -22 12 -22 12 11 27 19 9 61 27 94 40 40 17 64 33
73 51 7 14 20 26 28 26 8 0 12 -4 9 -10 -3 -5 4 -10 15 -10 12 0 34 -9 48 -21
24 -19 27 -19 39 -3 10 13 9 21 -4 41 -16 23 -15 26 0 35 21 11 21 46 2 72
-21 28 -20 31 25 49 37 14 40 14 46 -5 8 -28 -5 -37 -22 -14 -13 19 -14 18
-14 -11 0 -18 5 -35 10 -38 17 -11 11 -37 -11 -42 -15 -4 -19 -12 -17 -32 3
-25 5 -26 63 -23 45 3 62 0 71 -13 10 -14 12 -14 18 0 3 8 14 15 25 15 25 0
48 37 32 53 -13 13 23 67 45 67 19 0 18 19 -2 41 -15 17 -18 17 -48 -11 -17
-17 -36 -30 -42 -30 -6 0 -21 -11 -34 -25 -13 -14 -32 -25 -42 -25 -13 0 -18
7 -18 25 0 14 6 25 13 25 7 0 22 7 33 15 18 14 18 16 2 29 -28 21 -22 26 25
25 55 -3 67 5 67 42 0 28 18 69 31 69 3 0 15 -13 27 -29z m3872 25 c0 -21 -26
-67 -41 -71 -41 -13 -52 18 -19 53 17 18 60 31 60 18z m-4040 -20 c-7 -7 -14
-6 -21 1 -9 9 -7 12 9 10 14 -1 18 -5 12 -11z m638 -101 c16 -14 32 -34 35
-45 4 -17 0 -20 -28 -20 -21 0 -39 -7 -47 -18 -16 -23 -45 -34 -69 -27 -15 5
-17 10 -9 25 14 26 13 30 -9 30 -12 0 -18 -7 -17 -17 0 -9 -10 -22 -22 -29
-13 -6 -28 -16 -34 -22 -6 -6 -17 -8 -25 -5 -11 4 -12 8 -3 13 7 4 13 19 13
34 0 21 4 26 23 26 35 0 74 18 74 34 0 13 53 45 77 46 6 0 25 -11 41 -25z
m-768 5 c0 -5 -7 -10 -15 -10 -8 0 -15 5 -15 10 0 6 7 10 15 10 8 0 15 -4 15
-10z m400 -60 c0 -5 -4 -10 -10 -10 -5 0 -10 5 -10 10 0 6 5 10 10 10 6 0 10
-4 10 -10z m-570 -69 c0 -20 -32 -37 -50 -26 -16 10 -12 33 8 38 34 9 42 7 42
-12z m596 -38 c-5 -12 -10 -13 -18 -5 -8 8 -8 15 3 28 15 18 25 4 15 -23z
m2504 -24 c0 -20 -29 -34 -43 -20 -6 6 -5 21 3 42 13 29 14 30 27 13 7 -10 13
-25 13 -35z m-100 -65 c0 -17 -22 -14 -28 4 -2 7 3 12 12 12 9 0 16 -7 16 -16z
m-3500 -74 c0 -5 -2 -10 -4 -10 -3 0 -8 5 -11 10 -3 6 -1 10 4 10 6 0 11 -4
11 -10z m4447 -42 c-3 -8 -6 -5 -6 6 -1 11 2 17 5 13 3 -3 4 -12 1 -19z
m-4212 -28 c0 -20 -5 -25 -25 -25 -28 0 -41 32 -18 46 23 15 43 5 43 -21z
m3382 -66 c-9 -9 -28 6 -21 18 4 6 10 6 17 -1 6 -6 8 -13 4 -17z m615 -16
c-12 -12 -35 -1 -27 12 3 5 13 6 21 3 10 -4 12 -9 6 -15z m68 -8 c0 -16 -4
-30 -8 -30 -5 0 -8 10 -6 23 1 12 3 25 3 30 3 21 11 3 11 -23z m-2710 -38 c0
-4 -9 -13 -20 -20 -16 -10 -20 -10 -20 2 0 8 6 17 13 19 19 8 27 8 27 -1z
m-1000 -47 c0 -26 -52 -64 -87 -65 -49 0 -42 23 17 59 41 25 70 27 70 6z m460
-17 c0 -5 -7 -8 -15 -8 -15 0 -20 21 -8 33 7 7 23 -11 23 -25z m480 -3 c0 -9
-6 -12 -15 -9 -8 4 -15 10 -15 15 0 5 7 9 15 9 8 0 15 -7 15 -15z m-882 -50
c7 -14 12 -32 12 -40 0 -8 3 -15 8 -15 4 0 13 -4 21 -9 12 -8 11 -17 -10 -57
-37 -72 -62 -96 -93 -88 -14 3 -26 9 -26 12 0 21 29 80 53 105 31 34 32 36 13
73 -15 27 -13 44 3 44 4 0 13 -11 19 -25z m4892 -10 c0 -14 -6 -25 -14 -25 -9
0 -12 8 -8 25 2 14 8 25 13 25 5 0 9 -11 9 -25z m-3882 -48 c2 -17 -5 -38 -15
-49 -14 -16 -15 -20 -3 -18 30 5 40 0 40 -20 0 -14 -5 -18 -16 -13 -14 5 -15
3 -4 -16 6 -13 9 -25 6 -28 -7 -7 -41 28 -49 50 -5 13 -13 16 -33 11 -19 -5
-25 -4 -20 5 4 6 9 30 11 53 6 54 28 79 58 65 15 -7 24 -21 25 -40z m-1233 27
c17 -3 40 -16 53 -27 24 -23 30 -57 8 -57 -8 0 -17 -15 -20 -35 -4 -19 -13
-35 -20 -35 -8 0 -24 -11 -37 -25 -31 -33 -49 -31 -85 6 -25 27 -29 38 -31 95
-1 60 1 65 25 79 26 14 42 14 107 -1z m732 -19 c-7 -16 -37 -21 -37 -5 0 10
32 31 39 25 2 -2 1 -11 -2 -20z m3658 -15 c3 -5 2 -16 -2 -24 -11 -20 -38 -3
-30 18 7 18 23 21 32 6z m-3539 -33 c11 -13 23 -29 27 -37 4 -8 11 -22 16 -30
9 -15 22 -50 22 -60 0 -3 9 -14 19 -25 10 -11 25 -37 33 -57 9 -21 25 -47 36
-60 12 -12 21 -28 21 -35 0 -7 4 -13 9 -13 10 0 25 -69 17 -77 -2 -3 -13 -2
-23 1 -15 5 -18 13 -15 43 4 32 3 35 -14 28 -32 -13 -94 -17 -94 -5 0 13 -127
14 -135 0 -3 -6 -17 -7 -31 -4 -18 5 -24 3 -22 -7 3 -14 -10 -17 -84 -21 -16
-1 -28 -7 -28 -15 0 -17 -12 -16 -57 2 -32 14 -37 14 -48 -1 -12 -17 -32 -17
-110 -1 -11 3 -24 1 -30 -3 -17 -13 -145 -22 -145 -10 0 5 11 10 25 10 14 0
25 6 25 13 0 18 30 44 55 49 11 2 24 13 30 26 5 12 16 22 23 22 8 0 26 6 40
14 15 8 42 21 60 28 18 7 35 21 38 30 3 10 11 18 19 18 7 0 27 11 43 25 34 28
52 32 52 10 0 -21 17 -19 29 4 9 16 19 18 55 14 49 -5 67 14 40 42 -13 13 -14
18 -4 31 7 8 10 17 7 20 -6 7 -47 -18 -47 -28 0 -5 -5 -8 -12 -8 -9 0 -9 3 -1
11 6 6 9 18 6 25 -4 10 3 14 24 14 37 0 93 19 93 31 0 16 16 10 36 -14z m4114
-1 c0 -8 7 -22 16 -31 11 -11 13 -20 7 -26 -15 -15 -43 17 -43 47 0 13 5 24
10 24 6 0 10 -6 10 -14z m-3412 -54 c2 -11 10 -26 18 -32 8 -7 14 -20 14 -30
0 -10 21 -38 48 -63 85 -83 102 -102 102 -114 0 -7 9 -17 20 -23 11 -6 20 -19
20 -29 0 -10 9 -26 20 -36 11 -10 20 -26 20 -35 0 -10 6 -23 14 -29 8 -6 19
-25 26 -41 7 -17 18 -30 25 -30 7 0 18 -12 23 -27 5 -16 27 -46 47 -68 20 -22
32 -41 26 -43 -6 -2 -11 -11 -11 -19 0 -10 6 -13 15 -9 9 3 18 -1 22 -10 4
-12 8 -12 13 -4 10 16 30 4 30 -16 0 -9 -7 -22 -15 -31 -8 -8 -13 -19 -10 -24
11 -16 25 -10 25 11 0 24 13 26 30 5 10 -12 10 -18 -1 -31 -10 -13 -10 -17 2
-25 20 -13 29 -11 29 6 0 8 9 15 21 15 11 0 18 -4 15 -9 -3 -4 3 -16 14 -26
15 -14 17 -22 9 -36 -8 -15 -6 -21 6 -25 9 -4 21 -2 28 5 22 22 30 11 24 -34
-4 -25 -2 -47 3 -50 6 -3 10 -18 10 -32 0 -16 7 -27 19 -30 22 -6 55 -74 56
-113 0 -18 5 -24 17 -22 22 3 26 -4 32 -71 4 -44 2 -59 -9 -63 -11 -4 -6 -21
22 -72 40 -76 62 -100 83 -95 12 4 12 3 2 -5 -26 -18 -10 -47 28 -50 18 -2 43
-10 54 -18 11 -8 31 -14 43 -14 13 0 23 -6 23 -12 0 -9 4 -8 10 2 7 11 10 6
10 -20 1 -31 2 -33 13 -18 11 13 28 16 90 15 58 -2 80 2 87 12 7 12 13 13 34
3 26 -12 35 -45 16 -57 -5 -3 -21 -30 -35 -60 -14 -29 -36 -68 -49 -87 -12
-19 -38 -62 -56 -97 -51 -95 -62 -96 -104 -7 -20 41 -36 79 -36 84 0 5 -18 37
-40 70 -22 33 -40 63 -40 67 0 4 -13 24 -30 45 -16 21 -30 41 -30 44 0 4 -18
33 -39 66 -22 32 -42 67 -45 78 -4 11 -15 27 -26 37 -11 10 -20 24 -20 31 0 6
-19 23 -42 37 -62 36 -152 128 -182 184 -23 44 -50 61 -108 67 -172 20 -198
28 -198 65 0 16 -10 37 -25 51 -14 13 -25 31 -25 39 0 9 -9 27 -20 41 -11 14
-20 33 -20 43 0 11 -9 30 -20 44 -11 14 -20 31 -20 38 0 7 -13 39 -30 70 -31
59 -38 103 -20 121 7 7 8 19 1 35 -5 13 -15 58 -21 99 -6 41 -21 93 -32 115
-26 52 -40 281 -17 273 8 -2 15 -14 17 -26z m3522 -67 c0 -24 -5 -35 -15 -35
-10 0 -15 11 -15 35 0 24 5 35 15 35 10 0 15 -11 15 -35z m-5250 -44 c0 -12
-20 -25 -27 -18 -7 7 6 27 18 27 5 0 9 -4 9 -9z m238 -45 c3 -34 1 -37 -20
-34 -27 4 -37 41 -17 64 19 23 34 11 37 -30z m108 -31 c-19 -35 -36 -38 -36
-7 0 29 30 66 43 53 8 -8 6 -21 -7 -46z m5244 -110 c0 -28 -4 -35 -20 -35 -11
0 -29 -9 -41 -21 -11 -11 -30 -19 -42 -17 -18 2 -23 11 -25 41 -5 54 10 67 74
67 l54 0 0 -35z m-4336 -20 c3 -8 1 -15 -4 -15 -6 0 -10 7 -10 15 0 8 2 15 4
15 2 0 6 -7 10 -15z m43 -67 c-3 -8 -6 -5 -6 6 -1 11 2 17 5 13 3 -3 4 -12 1
-19z m1263 6 c0 -2 -7 -4 -15 -4 -8 0 -15 4 -15 10 0 5 7 7 15 4 8 -4 15 -8
15 -10z m3080 -114 c0 -4 -9 -10 -20 -13 -15 -4 -20 0 -20 13 0 13 5 17 20 13
11 -3 20 -9 20 -13z m-1900 -350 c0 -5 -7 -10 -15 -10 -8 0 -15 5 -15 10 0 6
7 10 15 10 8 0 15 -4 15 -10z m2715 -31 c11 -17 -1 -21 -15 -4 -8 9 -8 15 -2
15 6 0 14 -5 17 -11z m303 -113 c-4 -29 -22 -23 -26 9 -3 19 0 24 13 19 9 -4
15 -15 13 -28z m-1231 -11 c1 -5 -1 -16 -5 -23 -12 -18 -42 -4 -42 20 0 14 6
19 22 16 12 -2 23 -7 25 -13z m-477 -39 c0 -7 -6 -19 -14 -25 -11 -9 -15 -7
-19 8 -3 11 -2 22 1 25 11 11 32 6 32 -8z m360 -22 c0 -17 -22 -14 -28 4 -2 7
3 12 12 12 9 0 16 -7 16 -16z m1395 -13 c7 -12 -12 -24 -25 -16 -11 7 -4 25
10 25 5 0 11 -4 15 -9z m-1642 -20 c14 -14 -11 -51 -33 -51 -19 0 -24 10 -20
39 1 8 -4 18 -12 23 -9 7 -1 8 22 4 19 -4 38 -10 43 -15z m-4599 -154 c-4 -79
-12 -96 -42 -97 -13 0 -11 14 13 97 11 35 10 43 -1 47 -14 5 -19 47 -7 59 3 4
14 0 24 -9 15 -13 17 -29 13 -97z m5663 91 c-3 -8 -6 -5 -6 6 -1 11 2 17 5 13
3 -3 4 -12 1 -19z m-928 -27 c25 -35 26 -45 5 -37 -8 3 -24 2 -33 -4 -13 -6
-24 -5 -37 4 -16 12 -16 18 -6 40 15 34 45 33 71 -3z m-468 -33 c0 -13 3 -17
6 -10 6 17 23 15 23 -2 0 -8 11 -23 25 -33 23 -17 23 -19 6 -39 -25 -31 -181
-61 -181 -35 0 14 48 61 64 61 16 0 31 34 21 50 -8 14 3 30 21 30 8 0 14 -10
15 -22z m568 -8 c12 -35 1 -44 -41 -38 -26 3 -35 32 -18 53 21 25 47 18 59
-15z m211 4 c0 -8 11 -20 25 -26 14 -6 25 -15 25 -19 0 -12 -41 -22 -50 -12
-13 14 -23 86 -11 78 6 -3 11 -13 11 -21z m-960 -43 c0 -17 -4 -33 -10 -36 -5
-3 -10 -17 -10 -30 0 -18 -7 -25 -29 -30 -17 -3 -39 -1 -52 5 -21 12 -20 13
32 66 29 30 57 54 61 54 4 0 8 -13 8 -29z m330 -22 c0 -11 -27 -12 -34 0 -3 4
-3 11 0 14 8 8 34 -3 34 -14z m-5037 -16 c17 -10 -4 -19 -37 -15 -24 3 -33 8
-29 18 5 13 41 11 66 -3z m5828 -52 c20 -20 44 -42 53 -50 13 -9 16 -21 11
-40 -9 -35 -16 -41 -58 -51 l-36 -8 5 64 c3 35 1 64 -4 64 -14 0 -53 60 -47
71 8 12 23 1 76 -50z m-731 34 c10 -12 10 -15 -4 -15 -9 0 -16 7 -16 15 0 8 2
15 4 15 2 0 9 -7 16 -15z m-4572 -29 c-4 -29 -22 -23 -26 9 -3 19 0 24 13 19
9 -4 15 -15 13 -28z m5192 4 c0 -11 -4 -20 -10 -20 -5 0 -10 9 -10 20 0 11 5
20 10 20 6 0 10 -9 10 -20z m-5645 -10 c4 -6 -5 -10 -19 -10 -14 0 -26 5 -26
10 0 6 9 10 19 10 11 0 23 -4 26 -10z m6275 -130 c0 -5 -5 -10 -11 -10 -5 0
-7 5 -4 10 3 6 8 10 11 10 2 0 4 -4 4 -10z m-996 -30 c13 -13 -2 -13 -43 1
-17 6 -31 15 -31 19 0 11 60 -6 74 -20z m1068 -27 c2 -10 0 -31 -4 -48 -19
-68 -18 -81 5 -103 21 -20 25 -20 52 -6 26 13 30 13 46 -3 9 -10 19 -32 22
-49 5 -26 2 -33 -18 -42 -29 -13 -85 -5 -91 13 -7 18 -80 28 -103 14 -39 -25
-68 15 -37 50 20 23 23 64 7 94 -11 21 -11 30 0 56 13 30 15 31 101 39 9 1 18
-6 20 -15z m339 -63 c16 -16 29 -34 29 -39 0 -5 9 -13 20 -16 30 -9 25 -42
-10 -60 -36 -19 -40 -19 -40 0 0 19 -37 19 -70 0 -37 -21 -48 -18 -42 10 2 14
0 25 -6 25 -5 0 -9 11 -9 25 0 32 -10 42 -24 28 -6 -6 -18 -9 -26 -6 -12 5
-11 8 3 24 9 10 21 15 28 13 7 -3 19 2 26 11 7 9 29 15 53 15 31 0 46 -6 68
-30z m-247 4 c9 -23 0 -32 -29 -26 -34 6 -35 42 -1 42 13 0 27 -7 30 -16z
m-771 -86 c2 -7 2 -19 0 -25 -7 -17 -43 2 -43 22 0 18 37 20 43 3z m1102 -28
c-3 -5 0 -10 8 -10 16 0 30 -24 20 -34 -11 -11 -41 -6 -46 7 -4 12 9 47 19 47
3 0 2 -4 -1 -10z m-595 -24 c0 -2 -9 -6 -20 -9 -15 -4 -20 0 -20 14 0 17 3 18
20 9 11 -6 20 -12 20 -14z m345 -106 c-3 -5 1 -10 9 -10 8 0 20 -9 26 -20 9
-17 7 -20 -10 -21 -11 -1 -26 -2 -32 -3 -8 -1 -12 8 -10 19 4 29 10 45 17 45
4 0 3 -4 0 -10z m-255 -40 c0 -11 -4 -20 -10 -20 -5 0 -10 9 -10 20 0 11 5 20
10 20 6 0 10 -9 10 -20z m138 -22 c41 -20 51 -98 12 -98 -9 0 -29 9 -42 20
-14 11 -40 21 -57 22 -34 2 -47 24 -36 59 6 19 12 21 52 15 25 -3 57 -12 71
-18z m-6898 -79 c0 -5 13 -9 29 -9 20 0 30 -6 34 -20 6 -24 4 -24 -33 -5 -17
9 -30 13 -30 10 0 -3 -12 2 -26 11 -18 12 -22 19 -13 25 14 8 39 1 39 -12z
m-70 -34 c0 -8 -4 -15 -10 -15 -5 0 -10 7 -10 15 0 8 5 15 10 15 6 0 10 -7 10
-15z m205 -26 c12 -19 -3 -22 -27 -5 l-22 16 21 0 c12 0 25 -5 28 -11z m-205
-41 c0 -29 20 -75 49 -110 12 -15 12 -20 0 -34 -7 -9 -18 -25 -24 -36 -15 -30
-28 -27 -37 8 -11 44 -34 61 -59 46 -10 -7 -23 -12 -29 -12 -16 0 -12 27 5 34
8 3 15 16 15 30 0 14 7 31 15 40 8 8 15 17 15 21 0 13 35 53 43 48 4 -2 7 -18
7 -35z m260 2 c0 -5 -7 -7 -15 -4 -8 4 -15 8 -15 10 0 2 7 4 15 4 8 0 15 -4
15 -10z m-205 -24 c18 -13 17 -13 -6 -11 -38 4 -39 4 -39 15 0 14 23 12 45 -4z
m46 -90 c12 -13 12 -26 0 -26 -12 0 -31 56 -23 65 4 4 9 -1 10 -12 2 -10 8
-22 13 -27z m7073 -58 c15 -37 12 -48 -12 -48 -19 0 -47 53 -37 70 12 20 35 9
49 -22z m-3875 -35 c0 -27 -3 -41 -6 -33 -4 8 -13 20 -22 27 -14 10 -14 13 3
32 11 12 21 21 23 21 1 0 3 -21 2 -47z m-3121 0 c-5 -25 -28 -28 -28 -4 0 12
6 21 16 21 9 0 14 -7 12 -17z m7077 -91 c-8 -10 -24 68 -18 84 6 14 9 6 14
-31 3 -27 5 -51 4 -53z m-7415 49 c0 -5 -7 -11 -15 -15 -15 -5 -20 5 -8 17 9
10 23 9 23 -2z m420 -41 c0 -5 -4 -10 -10 -10 -5 0 -10 5 -10 10 0 6 5 10 10
10 6 0 10 -4 10 -10z m6890 -68 c0 -18 -10 -36 -30 -54 -17 -15 -30 -21 -30
-13 0 7 -7 18 -15 25 -22 18 -18 33 13 52 41 26 62 23 62 -10z"/>
<path d="M1336 3368 c-9 -27 -14 -58 -10 -58 16 0 94 46 91 55 -5 16 -76 19
-81 3z"/>
<path d="M1330 3290 c0 -5 5 -10 11 -10 5 0 7 5 4 10 -3 6 -8 10 -11 10 -2 0
-4 -4 -4 -10z"/>
<path d="M2410 2949 c0 -5 5 -7 10 -4 6 3 10 8 10 11 0 2 -4 4 -10 4 -5 0 -10
-5 -10 -11z"/>
<path d="M2390 2890 c0 -6 7 -10 15 -10 8 0 15 2 15 4 0 2 -7 6 -15 10 -8 3
-15 1 -15 -4z"/>
<path d="M1887 2674 c3 -10 21 -14 57 -13 55 0 43 11 -26 22 -29 4 -36 3 -31
-9z"/>
<path d="M2120 2670 c0 -5 5 -10 10 -10 6 0 10 5 10 10 0 6 -4 10 -10 10 -5 0
-10 -4 -10 -10z"/>
<path d="M2850 2267 c0 -2 9 -14 20 -27 22 -25 26 -20 10 11 -9 16 -30 27 -30
16z"/>
<path d="M5094 7975 c-9 -36 0 -50 32 -53 16 -1 31 -7 32 -12 7 -21 20 -9 24
23 3 17 8 40 13 50 6 15 1 17 -44 17 -46 0 -51 -2 -57 -25z"/>
<path d="M5240 7978 c0 -16 5 -28 10 -28 13 0 13 20 0 40 -8 12 -10 9 -10 -12z"/>
<path d="M5274 7935 c-23 -68 -22 -75 9 -75 10 0 21 -9 24 -20 3 -11 10 -20
17 -20 18 1 63 43 71 68 8 26 25 21 18 -6 -2 -10 2 -24 10 -30 10 -9 13 -26 9
-62 -6 -63 12 -82 73 -74 30 4 36 3 25 -5 -12 -8 -7 -11 22 -11 46 0 77 -12
110 -41 23 -20 24 -26 14 -57 -9 -31 -8 -37 9 -46 10 -6 29 -20 41 -32 41 -39
97 -14 118 53 6 19 2 25 -17 32 -34 13 -42 43 -22 82 30 58 0 94 -100 119 -32
7 -43 16 -52 40 -9 24 -17 30 -40 30 -16 0 -35 -6 -42 -12 -11 -11 -14 -10
-18 0 -3 7 -16 17 -29 22 -26 10 -29 17 -14 40 7 12 12 12 29 -5 24 -21 22
-21 38 23 10 29 9 32 -8 32 -10 0 -19 5 -19 10 0 6 -26 10 -59 10 -51 0 -61
-3 -66 -20 -8 -26 -44 -60 -63 -60 -11 0 -13 9 -9 40 5 39 5 40 -26 40 -30 0
-33 -4 -53 -65z"/>
<path d="M305 7950 c-3 -5 -1 -10 4 -10 6 0 11 5 11 10 0 6 -2 10 -4 10 -3 0
-8 -4 -11 -10z"/>
<path d="M5880 7941 c0 -6 5 -13 10 -16 6 -3 10 1 10 9 0 9 -4 16 -10 16 -5 0
-10 -4 -10 -9z"/>
<path d="M5918 7573 c-16 -8 -28 -21 -28 -28 0 -8 12 -17 28 -21 15 -3 35 -8
45 -11 19 -5 24 12 6 23 -8 4 -8 9 0 17 27 27 -9 40 -51 20z"/>
<path d="M7243 7502 c-7 -4 -15 -22 -19 -39 -5 -25 -2 -31 15 -36 20 -5 41 16
41 40 0 19 -25 42 -37 35z"/>
<path d="M7964 7422 c-31 -20 -19 -109 20 -141 14 -12 16 -5 16 68 0 81 -6 93
-36 73z"/>
<path d="M7465 7380 c-4 -6 -11 -8 -16 -5 -5 4 -9 -1 -9 -9 0 -21 54 -14 58 8
4 18 -23 23 -33 6z"/>
<path d="M5863 7293 c-9 -21 -19 -41 -21 -45 -2 -5 3 -8 11 -8 17 0 47 42 47
64 0 31 -20 25 -37 -11z"/>
<path d="M6768 7269 c-10 -5 -18 -14 -18 -18 0 -12 40 -24 73 -22 18 2 29 -3
33 -16 23 -69 27 -72 55 -58 15 8 29 21 32 28 7 20 -44 68 -90 84 -45 15 -62
16 -85 2z"/>
<path d="M7977 7178 c-9 -7 -21 -25 -26 -39 -8 -23 -7 -28 11 -32 16 -5 19
-11 13 -36 -5 -24 -3 -31 9 -31 13 0 16 13 16 75 0 41 -1 75 -3 75 -2 0 -11
-6 -20 -12z"/>
<path d="M6072 7147 c-14 -17 -4 -57 14 -57 8 0 14 -7 14 -15 0 -9 9 -15 21
-15 33 0 102 22 121 38 17 14 16 16 -8 38 -21 20 -36 24 -88 24 -40 0 -68 -5
-74 -13z"/>
<path d="M5120 7140 c0 -5 -9 -10 -21 -10 -34 0 -59 -19 -59 -46 0 -22 4 -25
32 -22 30 3 33 1 39 -34 3 -21 1 -42 -4 -47 -14 -14 40 -26 56 -12 18 14 12
112 -8 152 -15 28 -35 39 -35 19z"/>
<path d="M5318 7089 c-13 -21 -13 -28 -1 -58 11 -25 18 -32 33 -28 11 3 20 0
21 -6 1 -7 2 -19 3 -27 2 -8 3 -22 4 -31 3 -21 67 -51 96 -43 16 4 25 0 29
-10 4 -9 17 -16 29 -16 13 0 34 -9 48 -20 14 -11 34 -20 46 -20 11 0 24 -3 28
-7 7 -8 79 -5 109 3 10 3 17 15 17 28 0 26 -26 40 -92 51 -22 3 -45 16 -56 30
-11 13 -35 26 -57 31 -24 4 -51 20 -72 40 -19 19 -38 34 -43 34 -6 0 -10 11
-10 25 0 15 -6 25 -15 25 -8 0 -13 -6 -11 -12 1 -7 1 -10 -1 -5 -3 4 -18 7
-35 7 -17 0 -36 7 -43 16 -10 14 -13 14 -27 -7z m162 -169 c0 -5 -10 -10 -22
-9 -22 0 -22 1 -3 9 11 5 21 9 23 9 1 1 2 -3 2 -9z"/>
<path d="M4833 7013 c-19 -7 -16 -60 3 -67 9 -3 31 3 49 14 18 11 37 20 42 19
46 -8 42 15 -6 29 -40 12 -67 14 -88 5z"/>
<path d="M7741 6944 c0 -11 3 -14 6 -6 3 7 2 16 -1 19 -3 4 -6 -2 -5 -13z"/>
<path d="M10 6904 c-13 -34 -13 -107 0 -99 6 3 10 1 10 -6 0 -7 2 -10 5 -7 3
3 1 17 -5 32 -8 23 -6 30 15 50 29 27 32 41 9 50 -23 9 -24 8 -34 -20z"/>
<path d="M7981 6888 c0 -13 4 -32 9 -43 7 -15 9 -10 9 23 1 23 -3 42 -9 42 -5
0 -10 -10 -9 -22z"/>
<path d="M6231 6831 c-20 -13 -4 -31 29 -31 16 0 32 5 36 11 7 12 -13 29 -36
29 -8 0 -21 -4 -29 -9z"/>
<path d="M5468 6762 c-3 -35 -5 -37 -42 -42 -37 -5 -40 -8 -51 -52 -13 -53
-10 -62 23 -71 23 -5 122 29 122 43 0 4 9 10 20 13 10 3 22 17 26 32 8 32 -17
71 -64 97 l-31 17 -3 -37z"/>
<path d="M6170 6731 c0 -5 7 -11 14 -14 10 -4 13 -1 9 9 -6 15 -23 19 -23 5z"/>
<path d="M0 6651 c0 -62 2 -71 18 -71 11 0 27 9 37 20 20 22 35 26 35 9 0 -6
7 -17 16 -26 8 -9 13 -22 10 -30 -4 -9 1 -17 14 -20 11 -3 20 -12 20 -19 0
-19 -29 -18 -37 1 -5 14 -8 14 -24 -1 -13 -12 -29 -15 -53 -11 l-35 6 -1 -450
c0 -314 3 -449 10 -449 6 0 18 -16 26 -36 8 -20 27 -46 41 -58 25 -22 25 -23
8 -49 -9 -15 -13 -27 -9 -27 23 -1 -25 -20 -49 -20 l-27 0 0 -310 c1 -176 5
-308 10 -305 5 3 11 1 15 -4 3 -6 12 -8 20 -5 8 3 21 -6 32 -23 9 -15 23 -32
30 -36 7 -4 13 -15 13 -23 0 -8 5 -24 11 -35 8 -16 13 -18 25 -8 13 10 13 15
-1 35 -14 22 -14 24 9 39 33 22 51 67 36 94 -14 26 -17 26 -86 -4 -31 -14 -60
-22 -65 -19 -5 3 -9 17 -9 32 0 22 10 34 51 61 65 42 113 56 148 42 14 -6 33
-10 41 -9 44 4 66 -4 75 -24 6 -14 21 -24 38 -26 28 -3 53 -34 42 -52 -11 -18
5 -31 26 -20 21 12 26 40 7 41 -7 0 -3 5 10 11 17 9 26 8 40 -5 12 -11 22 -13
32 -7 11 7 25 -1 53 -32 52 -56 55 -65 49 -111 -3 -25 -1 -42 8 -47 10 -6 9
-15 -1 -46 -8 -22 -18 -44 -24 -50 -6 -5 -53 -10 -108 -11 -75 0 -102 -4 -116
-17 -9 -9 -20 -16 -23 -16 -14 0 -47 89 -50 135 -3 46 -1 50 19 47 22 -3 43
22 43 52 0 20 -29 20 -54 1 -11 -8 -31 -15 -45 -16 -24 0 -24 -1 -6 -9 19 -8
19 -9 -1 -9 -12 -1 -24 -9 -28 -18 -6 -19 -27 -55 -37 -63 -13 -11 -16 -52 -7
-95 7 -35 16 -49 38 -60 16 -8 36 -12 44 -9 9 3 16 1 16 -5 0 -19 33 -48 63
-55 19 -4 27 -3 27 7 0 18 54 35 118 36 46 1 52 -1 52 -18 0 -26 -38 -61 -66
-61 -43 0 -54 -10 -54 -52 0 -47 -20 -48 -35 -1 -6 16 -16 37 -24 47 -12 14
-15 13 -32 -19 -11 -19 -19 -48 -19 -64 0 -16 -7 -34 -15 -41 -19 -16 -19 -44
0 -60 12 -10 18 -10 30 0 18 15 17 15 20 -31 1 -21 11 -46 23 -59 19 -21 25
-22 63 -12 50 13 72 6 66 -19 -3 -10 5 -30 19 -46 13 -15 24 -34 24 -41 0 -10
9 -12 33 -7 17 4 36 11 41 15 14 14 -2 40 -24 40 -32 0 -28 57 5 70 20 8 25
16 25 45 0 19 4 35 8 35 15 0 53 41 47 51 -8 12 2 12 26 -2 24 -12 59 -3 59
17 0 8 7 14 15 14 21 0 19 -47 -4 -101 -10 -24 -21 -53 -25 -63 -6 -18 -7 -18
-20 -1 -16 23 -29 15 -50 -30 -18 -38 -14 -75 10 -75 7 0 19 -9 26 -20 18 -29
56 -26 68 6 6 14 7 36 4 49 -4 16 0 30 11 42 17 16 17 16 11 -5 -9 -27 6 -29
31 -4 10 10 31 24 46 32 19 9 26 19 22 29 -17 44 -18 74 -2 83 19 10 23 63 7
73 -5 3 -10 15 -10 25 0 10 -14 28 -30 40 l-30 22 -39 -31 c-38 -30 -81 -41
-81 -21 0 6 -6 10 -14 10 -18 0 -66 95 -66 131 0 19 -5 29 -15 29 -19 0 -19
13 0 50 9 17 22 30 31 30 9 0 29 14 46 30 16 17 34 30 39 30 17 0 34 49 21 62
-9 9 -12 9 -12 0 0 -7 -8 -12 -18 -12 -21 0 -42 18 -42 37 0 8 12 13 28 13 15
0 33 5 39 11 8 8 13 8 17 0 14 -21 46 -10 86 29 22 21 40 46 40 55 0 8 -2 15
-3 15 -10 0 -74 -35 -85 -47 -30 -30 -46 -3 -30 50 7 23 19 38 33 41 12 3 27
17 35 31 7 14 19 25 27 25 7 0 13 5 13 10 0 6 -27 10 -60 10 -57 0 -60 1 -60
24 0 23 -2 24 -32 15 -64 -18 -95 -12 -119 24 -13 17 -29 38 -36 45 -18 19
-16 42 5 49 9 3 24 12 32 18 30 25 57 27 63 6 3 -11 -1 -25 -9 -32 -8 -6 -14
-18 -14 -25 0 -17 22 -18 38 -2 7 7 15 8 24 1 25 -19 127 -35 183 -28 53 7 55
8 48 33 -5 23 -4 24 18 18 49 -16 79 -18 79 -7 0 6 18 14 41 17 22 4 46 13 54
20 7 8 21 14 29 14 17 0 20 19 10 58 -8 27 -18 28 -54 2 -32 -23 -116 -26
-124 -4 -3 8 -17 14 -31 14 -26 0 -84 53 -85 78 0 7 11 24 24 37 25 25 103 43
133 30 10 -5 27 -9 38 -10 17 -1 21 4 20 29 0 30 1 31 44 31 31 0 46 -5 49
-15 4 -12 2 -13 -9 -3 -30 25 -58 -25 -29 -52 21 -19 120 -33 120 -16 0 6 18
11 40 11 29 0 43 5 52 20 9 13 24 20 45 20 21 0 33 5 33 14 0 18 -38 27 -60
14 -9 -6 -25 -8 -35 -4 -16 6 -15 8 6 25 60 46 143 46 119 1 -7 -14 -7 -20 0
-20 5 0 10 7 10 16 0 13 7 15 38 9 20 -3 50 -13 65 -20 30 -15 65 -6 95 22 21
20 32 15 47 -20 17 -41 13 -72 -8 -72 -21 0 -28 -9 -31 -39 -4 -37 40 -49 65
-18 9 12 22 22 28 22 6 0 11 10 11 23 0 33 11 44 52 52 31 6 39 4 50 -14 7
-12 23 -21 35 -21 13 0 23 -4 23 -10 0 -22 74 -41 135 -36 125 11 164 18 176
32 6 8 23 14 38 14 41 0 73 27 69 58 -3 23 -9 28 -42 33 -22 4 -43 14 -50 25
-18 30 -25 64 -14 64 5 0 18 10 28 22 14 18 29 23 79 24 34 0 66 5 72 11 5 5
6 24 3 41 -6 28 -9 31 -33 25 -14 -3 -35 -12 -46 -19 -11 -8 -36 -14 -57 -14
-34 0 -38 3 -38 26 0 23 -3 25 -25 20 -14 -4 -34 -1 -45 6 -17 11 -22 10 -29
-1 -5 -7 -14 -10 -20 -7 -16 10 -14 36 3 36 7 0 19 7 26 15 7 8 20 15 29 15
23 -1 96 -37 94 -47 -4 -12 44 -22 84 -19 48 5 103 59 103 102 l0 33 -55 0
c-30 0 -57 -5 -60 -10 -7 -10 -108 -12 -119 -2 -10 10 -78 33 -99 33 -14 0
-17 -8 -15 -45 1 -36 -3 -49 -20 -61 -18 -12 -41 -90 -34 -116 3 -12 -59 -58
-78 -58 -10 0 -22 -9 -25 -20 -8 -27 -13 -26 -63 14 -36 29 -49 34 -78 29 -27
-4 -34 -2 -34 11 0 9 6 16 13 16 6 0 21 12 31 27 18 25 18 27 2 39 -10 7 -24
10 -32 7 -8 -3 -30 2 -49 11 -35 17 -76 14 -105 -8 -8 -7 -26 -18 -40 -24 -54
-28 -62 -38 -49 -61 11 -17 10 -23 -5 -40 -11 -12 -23 -21 -29 -21 -17 0 -67
41 -62 51 4 5 -10 9 -29 9 -25 0 -38 -6 -46 -20 -6 -12 -21 -20 -35 -20 -22 0
-24 3 -18 33 3 17 10 40 14 49 14 27 11 38 -16 48 -18 7 -25 17 -25 35 0 22
-3 25 -24 19 -41 -10 -47 3 -23 50 31 61 75 90 119 78 45 -12 71 1 113 60 38
52 29 63 -25 31 -36 -21 -90 -8 -105 25 -17 39 -31 23 -26 -30 1 -9 -3 -19 -9
-23 -6 -4 -10 4 -10 19 0 16 -6 26 -14 26 -8 0 -18 9 -21 21 -6 17 -14 20 -53
18 -58 -4 -67 16 -18 36 20 9 36 19 36 23 -1 11 -102 72 -112 66 -14 -9 -9
-48 12 -82 45 -73 7 -98 -55 -37 -41 42 -42 49 -13 69 21 15 21 17 6 33 -12
12 -21 13 -30 6 -16 -13 -66 -14 -74 -2 -3 5 -19 9 -36 9 -23 0 -29 4 -24 16
3 9 6 17 6 20 0 4 56 34 65 34 3 0 10 -10 15 -22 l10 -23 -3 24 c-1 13 -11 29
-22 35 -11 6 -23 15 -26 20 -10 13 -76 -2 -83 -19 -7 -20 -33 -19 -45 2 -7 13
-21 17 -53 16 -24 -1 -58 3 -76 9 -28 8 -35 7 -46 -7 -11 -15 -13 -15 -25 -1
-7 8 -9 21 -5 27 5 9 -1 10 -23 6 -17 -3 -43 -1 -57 6 -28 13 -32 22 -16 32
11 7 14 74 4 99 -6 16 -25 23 -23 9 3 -21 -2 -33 -16 -33 -9 0 -15 9 -15 21 0
20 -32 73 -56 94 -6 6 -17 27 -24 48 -11 34 -13 36 -24 21 -15 -20 -34 -12
-46 22 -6 14 -18 24 -30 24 -21 0 -28 -24 -10 -35 38 -23 -32 -81 -77 -64 -18
6 -23 16 -23 43 0 36 -12 46 -57 46 -14 0 -36 9 -50 20 -14 11 -34 20 -45 20
-29 0 -76 28 -83 49 -3 11 -12 25 -20 31 -13 11 -15 3 -15 -59z m238 -191 c33
-23 40 -35 39 -57 -2 -24 2 -28 21 -26 16 2 22 -2 22 -16 0 -24 -20 -31 -64
-24 -41 6 -41 5 -21 -43 l15 -35 -27 3 c-46 5 -53 34 -21 81 11 15 10 20 -6
32 -10 8 -22 16 -27 17 -4 2 -10 24 -14 51 -7 45 -6 47 17 47 14 0 43 -13 66
-30z m-148 -10 c0 -10 -41 -31 -48 -25 -1 1 0 10 4 19 7 17 44 23 44 6z m24
-76 c4 -9 5 -17 4 -18 -2 -1 -18 -11 -36 -24 -29 -21 -33 -21 -39 -6 -4 12 3
25 21 41 32 27 42 29 50 7z m264 -50 c12 -8 22 -21 22 -29 0 -8 10 -21 23 -30
19 -13 20 -17 7 -25 -8 -5 -37 -10 -64 -10 -40 0 -46 2 -37 14 8 10 8 20 -3
41 -26 49 5 73 52 39z m371 -298 c-3 -23 1 -36 12 -36 13 0 48 -41 49 -56 0
-14 28 -26 41 -18 5 3 9 12 9 20 0 8 4 14 10 14 5 0 9 -11 8 -24 -1 -14 -6
-22 -10 -20 -4 3 -8 -2 -8 -11 0 -9 13 -24 30 -33 16 -9 30 -20 30 -24 0 -5
15 -8 33 -8 43 -1 80 -30 75 -60 -5 -38 -66 -56 -242 -72 -112 -10 -120 -9
-132 8 -8 11 -18 24 -23 30 -7 8 2 25 30 55 46 50 51 79 14 79 -17 0 -28 7
-34 23 -14 36 -68 90 -82 82 -7 -5 -10 -3 -7 6 6 18 68 33 81 20 19 -19 43
-12 65 19 21 28 54 33 51 6z m-269 -83 c0 -10 -4 -23 -8 -29 -10 -16 -57 -12
-56 4 1 6 2 19 3 27 2 23 61 20 61 -2z m761 -143 c10 -6 19 -17 19 -25 0 -17
-39 -41 -41 -25 -1 5 -2 14 -3 19 0 5 -4 13 -8 17 -22 22 0 31 33 14z m999
-10 c0 -5 -4 -10 -10 -10 -5 0 -10 5 -10 10 0 6 5 10 10 10 6 0 10 -4 10 -10z
m-975 -197 c6 -28 4 -33 -12 -33 -26 1 -67 35 -58 49 9 16 48 31 56 22 4 -3
10 -21 14 -38z m988 -35 c24 -28 21 -43 -8 -56 -42 -19 -54 -15 -61 23 -3 19
-10 35 -15 35 -5 0 -9 6 -9 14 0 22 71 9 93 -16z m-387 -51 c4 -4 2 -7 -4 -7
-7 0 -12 -7 -12 -15 0 -9 -9 -15 -25 -15 -29 0 -31 7 -9 31 15 17 37 19 50 6z
m-495 -76 c-12 -21 -45 -29 -56 -12 -3 5 7 19 22 30 31 25 51 14 34 -18z
m-1091 -167 c51 -34 64 -68 31 -79 -31 -9 -67 4 -82 31 -7 14 -19 22 -26 20
-16 -7 -16 -1 -1 24 15 24 45 26 78 4z m206 -129 c10 -8 17 -15 14 -15 -39 -9
-55 -8 -66 1 -32 26 18 40 52 14z m92 -23 c6 -9 12 -24 12 -34 0 -15 -7 -17
-42 -14 -48 4 -57 17 -34 51 17 26 41 25 64 -3z m152 -222 c0 -5 -7 -10 -15
-10 -8 0 -15 5 -15 10 0 6 7 10 15 10 8 0 15 -4 15 -10z m-327 -406 c-4 -12
-8 -13 -14 -3 -9 15 -2 32 11 24 5 -3 6 -13 3 -21z m232 6 c-3 -5 -10 -10 -16
-10 -5 0 -9 5 -9 10 0 6 7 10 16 10 8 0 12 -4 9 -10z"/>
<path d="M6074 6680 c-16 -16 -25 -19 -45 -12 -29 12 -81 -11 -73 -32 5 -13
46 -36 65 -36 14 0 97 70 103 87 8 21 -27 16 -50 -7z"/>
<path d="M7965 6590 c4 -6 11 -8 16 -5 14 9 11 15 -7 15 -8 0 -12 -5 -9 -10z"/>
<path d="M5855 6380 c-3 -5 -1 -10 4 -10 6 0 11 5 11 10 0 6 -2 10 -4 10 -3 0
-8 -4 -11 -10z"/>
<path d="M4380 6335 c7 -8 16 -15 21 -15 5 0 9 7 9 15 0 9 -9 15 -21 15 -18 0
-19 -2 -9 -15z"/>
<path d="M4297 6323 c-4 -3 -7 -17 -7 -29 0 -16 4 -22 14 -18 9 3 17 -3 21
-15 9 -29 25 -26 25 4 0 14 -5 25 -11 25 -6 0 -8 9 -4 20 5 15 2 20 -13 20
-10 0 -22 -3 -25 -7z"/>
<path d="M4238 6271 c-9 -10 -24 -24 -34 -29 -15 -9 -17 -15 -8 -29 13 -21 42
-29 56 -15 11 11 19 92 9 92 -4 0 -14 -9 -23 -19z"/>
<path d="M3018 6263 c7 -3 16 -2 19 1 4 3 -2 6 -13 5 -11 0 -14 -3 -6 -6z"/>
<path d="M4342 6173 c-5 -10 -6 -27 -1 -38 11 -30 11 -38 -4 -32 -7 3 -22 -2
-32 -9 -16 -12 -17 -17 -7 -32 7 -9 16 -27 22 -39 11 -27 27 -29 57 -8 19 13
23 13 37 0 24 -25 49 -19 44 10 -4 16 0 29 10 34 8 5 12 13 8 20 -12 19 -36
12 -46 -15 -11 -29 -35 -28 -35 2 0 25 13 34 54 34 l34 0 -31 30 c-18 17 -37
30 -43 30 -6 0 -17 7 -25 15 -20 20 -31 19 -42 -2z"/>
<path d="M1388 6159 c-2 -6 -10 -11 -18 -12 -34 -5 -42 -18 -24 -38 19 -21 80
-22 78 -1 -1 6 -2 21 -2 31 -2 20 -29 36 -34 20z"/>
<path d="M1545 6111 c-6 -11 9 -23 19 -14 9 9 7 23 -3 23 -6 0 -12 -4 -16 -9z"/>
<path d="M1486 6064 c-8 -22 1 -31 16 -16 9 9 9 15 1 23 -7 7 -12 5 -17 -7z"/>
<path d="M4515 6040 c3 -5 10 -10 16 -10 5 0 9 5 9 10 0 6 -7 10 -16 10 -8 0
-12 -4 -9 -10z"/>
<path d="M4552 5988 c6 -18 28 -21 28 -4 0 9 -7 16 -16 16 -9 0 -14 -5 -12
-12z"/>
<path d="M4420 5970 c-13 -8 -13 -10 2 -10 9 0 18 -5 20 -11 5 -14 38 0 38 17
0 16 -38 19 -60 4z"/>
<path d="M3940 5910 c0 -11 5 -20 10 -20 6 0 10 9 10 20 0 11 -4 20 -10 20 -5
0 -10 -9 -10 -20z"/>
<path d="M4502 5898 c-2 -29 3 -36 33 -53 30 -16 75 -28 75 -19 0 1 -15 24
-33 50 -41 61 -72 70 -75 22z"/>
<path d="M4740 5868 c0 -10 5 -18 10 -18 6 0 10 -6 10 -14 0 -16 18 -31 27
-23 3 3 0 12 -6 19 -7 7 -18 22 -26 33 -13 18 -14 18 -15 3z"/>
<path d="M4836 5845 c8 -21 37 -35 70 -35 27 0 26 0 -10 25 -42 28 -68 33 -60
10z"/>
<path d="M2060 5819 c-56 -25 -87 -63 -70 -84 20 -24 39 -17 88 30 25 25 51
45 59 45 7 0 13 5 13 10 0 6 -4 10 -9 10 -5 0 -15 2 -23 5 -7 2 -33 -5 -58
-16z"/>
<path d="M4596 5794 c-8 -21 4 -46 20 -40 9 3 14 -6 16 -32 2 -29 7 -36 21
-34 12 2 23 -10 37 -43 20 -47 40 -59 40 -25 0 24 28 27 45 4 11 -16 12 -16
18 -1 4 11 -5 26 -28 44 -43 34 -44 47 -5 40 17 -4 30 -3 30 2 0 13 -45 61
-57 61 -6 0 -18 10 -26 23 l-16 22 -24 -28 c-24 -26 -26 -27 -32 -8 -7 24 -32
34 -39 15z"/>
<path d="M4555 5770 c4 -6 11 -8 16 -5 14 9 11 15 -7 15 -8 0 -12 -5 -9 -10z"/>
<path d="M2728 5728 c-20 -17 -32 -78 -15 -78 13 0 32 27 47 66 11 27 -5 33
-32 12z"/>
<path d="M2790 5642 c0 -7 -6 -12 -13 -12 -12 0 -42 -39 -35 -46 2 -2 13 -1
25 2 20 6 41 50 28 62 -3 3 -5 0 -5 -6z"/>
<path d="M3090 5635 c0 -8 2 -15 4 -15 2 0 6 7 10 15 3 8 1 15 -4 15 -6 0 -10
-7 -10 -15z"/>
<path d="M1560 5585 c-7 -9 -10 -18 -7 -21 10 -11 37 5 37 21 0 19 -14 19 -30
0z"/>
<path d="M7849 5524 c-9 -11 -10 -20 -3 -32 15 -24 28 -24 41 -2 24 38 -9 68
-38 34z"/>
<path d="M2618 5516 c-24 -18 -22 -28 4 -24 13 2 24 11 26 21 4 20 -6 21 -30
3z"/>
<path d="M2810 5490 c0 -13 5 -20 13 -17 6 2 12 10 12 17 0 7 -6 15 -12 18 -8
2 -13 -5 -13 -18z"/>
<path d="M7941 5485 c-13 -8 -28 -21 -33 -30 -5 -8 -27 -27 -49 -40 -24 -16
-39 -33 -39 -45 0 -11 -6 -20 -12 -20 -15 0 -53 -53 -63 -87 -5 -19 -3 -22 12
-17 10 4 34 22 54 41 20 19 43 34 50 33 35 -5 49 1 49 21 0 11 4 18 8 15 4 -2
9 4 9 15 2 25 21 49 38 49 12 0 35 48 35 71 0 13 -31 9 -59 -6z"/>
<path d="M5550 5460 c0 -5 5 -10 10 -10 6 0 10 5 10 10 0 6 -4 10 -10 10 -5 0
-10 -4 -10 -10z"/>
<path d="M2730 5391 c-17 -32 -13 -43 10 -31 11 6 20 20 20 30 0 25 -16 26
-30 1z"/>
<path d="M1520 5376 c0 -14 4 -26 8 -26 11 0 12 39 1 45 -5 4 -9 -5 -9 -19z"/>
<path d="M2570 5353 c-44 -16 -76 -72 -50 -88 14 -9 0 -35 -19 -35 -11 0 -8
-5 9 -14 33 -17 40 -12 40 29 0 19 4 36 9 39 5 3 18 22 30 41 20 34 16 41 -19
28z"/>
<path d="M1540 5320 c-14 -3 -26 -14 -28 -23 -3 -13 4 -17 32 -17 29 0 36 4
36 19 0 25 -9 29 -40 21z"/>
<path d="M7180 5290 c0 -11 5 -20 10 -20 6 0 10 9 10 20 0 11 -4 20 -10 20 -5
0 -10 -9 -10 -20z"/>
<path d="M7920 5292 c0 -11 9 -27 20 -37 11 -10 20 -31 20 -47 0 -21 5 -28 20
-28 17 0 20 7 20 40 0 32 -6 46 -27 65 -34 29 -53 32 -53 7z"/>
<path d="M1653 5268 c-4 -7 -8 -26 -9 -41 -2 -16 -8 -34 -14 -42 -19 -23 7
-28 50 -8 29 13 40 24 40 41 0 12 -4 22 -10 22 -5 0 -10 -4 -10 -10 0 -5 -7
-10 -15 -10 -18 0 -19 14 -5 41 8 15 7 19 -4 19 -8 0 -18 -6 -23 -12z"/>
<path d="M2665 5270 c-3 -5 -15 -10 -26 -10 -12 0 -19 -7 -19 -20 0 -11 -6
-20 -12 -21 -7 0 -28 -19 -46 -42 -63 -81 -72 -92 -112 -138 -25 -29 -40 -56
-40 -73 0 -25 -2 -26 -33 -21 -41 8 -61 -11 -51 -49 9 -36 54 -59 89 -46 45
17 55 13 55 -24 0 -47 -13 -52 -63 -26 l-41 22 -21 -25 c-21 -27 -71 -51 -86
-41 -12 7 -12 51 1 59 6 3 10 15 10 25 0 10 7 25 15 34 19 19 19 36 -1 64 -18
26 -61 29 -102 8 -63 -31 -121 -26 -92 8 11 14 10 20 -5 36 -10 11 -21 37 -24
57 -7 41 -30 54 -53 29 -11 -12 -15 -12 -31 2 -16 14 -19 14 -40 -6 -12 -11
-35 -24 -51 -28 -18 -4 -33 -17 -42 -38 -24 -54 -41 -71 -59 -56 -8 7 -15 21
-15 31 0 25 -27 24 -35 -1 -3 -11 -13 -20 -20 -20 -8 0 -24 -18 -36 -40 -13
-22 -29 -40 -37 -40 -9 0 -12 -6 -8 -16 3 -9 6 -18 6 -20 0 -2 5 -4 10 -4 6 0
10 8 10 18 0 19 51 44 68 33 6 -3 12 -22 14 -41 4 -47 35 -54 51 -11 14 37 43
41 77 9 l23 -22 -21 -14 c-24 -16 -28 -42 -10 -60 19 -19 32 -14 49 17 11 18
28 31 48 36 32 7 81 47 81 65 0 6 4 10 8 10 13 0 72 -55 72 -67 0 -27 36 -88
53 -89 60 -3 66 -5 61 -18 -3 -8 -1 -24 6 -35 9 -18 18 -20 58 -16 53 5 111
30 119 51 3 8 18 14 35 14 18 0 27 -4 23 -11 -4 -6 1 -17 11 -24 16 -12 17
-17 6 -35 -7 -11 -10 -25 -7 -30 4 -6 -2 -13 -12 -16 -46 -15 -47 -17 -15 -26
18 -5 32 -15 32 -24 0 -8 10 -18 23 -23 22 -9 34 -20 82 -75 20 -24 26 -26 31
-12 5 13 9 13 25 -7 10 -12 18 -17 19 -11 0 6 23 26 51 44 l52 33 46 -17 c25
-9 73 -16 106 -16 33 -1 87 -7 120 -15 33 -8 63 -15 68 -15 4 0 7 20 7 44 l0
43 -92 7 c-51 4 -139 10 -195 14 -101 8 -144 23 -115 41 7 4 12 21 12 37 -1
181 6 284 21 296 26 20 28 41 8 64 -16 17 -17 25 -7 51 6 16 8 39 4 49 -7 18
-8 18 -21 0 -22 -30 -34 -9 -32 57 3 98 -16 162 -38 127z m-715 -318 c0 -14
-23 -32 -42 -32 -11 0 -18 7 -18 20 0 16 7 20 30 20 17 0 30 -4 30 -8z m540
-41 c0 -16 -12 -41 -20 -41 -4 0 -5 11 -2 25 4 23 22 36 22 16z"/>
<path d="M5496 5245 c-9 -25 -8 -27 17 -23 12 2 22 10 22 18 0 21 -31 24 -39
5z"/>
<path d="M1260 5192 c-6 -2 -10 -17 -10 -33 0 -20 -10 -40 -30 -59 -33 -32
-37 -45 -16 -53 17 -7 61 37 52 52 -11 17 33 23 63 8 27 -14 35 -13 90 7 80
29 89 39 56 60 -18 12 -50 18 -111 19 -46 1 -89 1 -94 -1z"/>
<path d="M2135 5171 c-3 -6 -15 -11 -26 -11 -33 0 -21 -27 23 -49 23 -11 44
-18 46 -16 3 2 5 21 6 42 1 32 -3 39 -21 41 -11 2 -24 -2 -28 -7z"/>
<path d="M2260 5108 c-11 -4 -20 -12 -20 -17 0 -14 38 -33 50 -26 5 3 12 0 16
-6 3 -6 1 -15 -5 -19 -9 -5 -8 -10 4 -20 8 -7 15 -9 15 -5 0 4 7 2 15 -5 12
-10 20 -8 44 12 50 39 53 78 6 78 -13 0 -27 4 -30 10 -7 11 -64 9 -95 -2z"/>
<path d="M1626 5031 c-7 -11 3 -41 13 -41 10 0 30 37 24 44 -9 9 -31 7 -37 -3z"/>
<path d="M1690 5031 c0 -16 15 -20 40 -14 22 6 23 7 4 14 -27 11 -44 11 -44 0z"/>
<path d="M7536 5003 c5 -5 12 -12 16 -18 4 -6 8 -2 8 8 0 9 -7 17 -17 17 -9 0
-12 -3 -7 -7z"/>
<path d="M987 4973 c-9 -14 44 -93 62 -93 9 0 21 -4 27 -8 5 -4 26 -14 47 -21
36 -12 40 -11 53 8 10 13 26 21 44 21 35 0 100 29 100 44 -1 28 -20 34 -135
39 -66 4 -136 9 -156 13 -20 3 -39 2 -42 -3z"/>
<path d="M7688 4883 c-19 -5 -24 -28 -9 -37 14 -9 41 4 41 19 0 17 -10 23 -32
18z"/>
<path d="M1565 4786 c-30 -26 -29 -28 38 -47 42 -12 47 -17 47 -41 0 -31 17
-36 50 -16 15 10 22 10 31 1 10 -10 18 -1 37 38 28 60 19 83 -22 55 -37 -24
-78 -20 -106 9 -29 31 -40 31 -75 1z"/>
<path d="M7730 4780 c0 -13 5 -18 14 -14 8 3 12 12 9 20 -8 21 -23 17 -23 -6z"/>
<path d="M7837 4705 c6 -17 25 -15 31 3 2 7 -5 12 -17 12 -14 0 -19 -5 -14
-15z"/>
<path d="M1393 4647 c-12 -17 -25 -40 -29 -51 -6 -16 -4 -17 12 -8 32 17 77
70 70 81 -12 19 -30 12 -53 -22z"/>
<path d="M1783 4663 c-24 -2 -43 -8 -43 -13 0 -5 -16 -17 -36 -26 -45 -21 -52
-38 -30 -74 21 -36 20 -50 -3 -50 -10 0 -24 -7 -31 -15 -7 -8 -21 -15 -31 -15
-10 0 -23 -9 -29 -20 -8 -16 -21 -20 -59 -20 -47 0 -156 -31 -175 -50 -17 -17
-26 -11 -26 15 0 28 -27 35 -36 10 -7 -17 -31 -20 -36 -4 -10 30 -140 27 -160
-3 -14 -23 -9 -28 31 -28 44 0 53 -13 35 -49 -7 -14 -11 -28 -8 -33 3 -4 -2
-18 -10 -30 -9 -12 -16 -33 -16 -46 0 -13 -7 -30 -15 -39 -9 -8 -13 -18 -9
-22 4 -3 9 -1 11 5 2 7 13 10 23 7 14 -4 25 3 37 25 14 25 26 32 63 37 52 7
116 45 125 74 8 27 107 75 142 68 18 -3 36 2 55 17 16 11 56 26 89 31 60 10
66 15 96 73 5 11 88 23 151 22 l73 -1 -3 33 c-2 27 -7 33 -28 34 -14 0 -41 -5
-59 -13 -36 -14 -61 -11 -61 6 0 5 14 11 32 13 25 2 33 9 39 31 6 24 3 29 -21
42 -16 8 -30 14 -32 13 -2 -1 -22 -3 -45 -5z"/>
<path d="M7409 4620 c-23 -18 -44 -25 -78 -25 -61 0 -85 -23 -85 -84 l-1 -46
59 -3 58 -3 -6 35 c-8 42 7 55 36 29 20 -18 21 -18 13 7 -11 38 -11 42 2 47 6
2 22 -8 36 -23 20 -21 31 -25 53 -21 16 3 37 1 46 -4 25 -14 95 7 108 31 6 11
20 20 30 20 13 0 20 7 20 20 0 13 -7 20 -19 20 -10 0 -32 7 -47 15 -27 14 -30
13 -38 -5 -8 -19 -10 -19 -22 -2 -12 15 -13 15 -14 1 0 -18 -20 -29 -52 -29
-16 0 -19 5 -16 24 4 22 2 25 -23 23 -15 -1 -42 -13 -60 -27z"/>
<path d="M3724 4625 c-18 -13 -15 -14 29 -15 35 0 47 4 47 15 0 20 -50 20 -76
0z"/>
<path d="M2356 4622 c-9 -8 -7 -55 2 -69 4 -7 17 -10 29 -7 28 8 38 55 15 69
-21 12 -39 15 -46 7z"/>
<path d="M3203 4613 c9 -2 23 -2 30 0 6 3 -1 5 -18 5 -16 0 -22 -2 -12 -5z"/>
<path d="M2119 4580 c-12 -16 -35 -34 -51 -39 -32 -11 -37 -38 -9 -49 14 -5
17 -12 10 -29 -9 -26 -29 -31 -29 -9 0 21 -20 30 -33 17 -18 -18 11 -37 81
-55 96 -24 98 -23 67 30 l-27 47 36 33 c40 37 45 58 17 74 -30 15 -38 13 -62
-20z"/>
<path d="M3826 4601 c-18 -7 -18 -8 5 -14 35 -10 39 -9 39 8 0 16 -14 18 -44
6z"/>
<path d="M1172 4587 c-14 -17 -9 -52 8 -52 14 0 23 52 10 60 -4 3 -12 -1 -18
-8z"/>
<path d="M3664 4589 c-4 -7 1 -16 10 -21 22 -13 12 -26 -35 -45 -44 -17 -50
-46 -12 -51 12 -2 24 -10 27 -19 5 -12 2 -14 -16 -8 -35 11 -130 5 -153 -9
-11 -7 -36 -16 -55 -20 -34 -6 -80 -41 -80 -59 0 -6 20 -7 49 -4 33 4 55 1 68
-8 11 -8 56 -17 99 -21 72 -6 81 -5 98 15 24 26 31 26 56 1 25 -25 117 -45
136 -29 17 14 7 39 -16 39 -33 0 -31 18 3 23 17 2 34 1 35 -4 2 -5 13 -9 25
-8 21 0 21 1 2 9 -11 5 -15 9 -8 9 6 1 19 4 29 8 12 4 15 3 10 -5 -4 -7 9 -1
30 13 20 14 41 25 46 25 6 0 7 11 4 24 -4 16 -1 26 10 30 21 8 8 26 -19 26
-13 0 -31 6 -42 13 -20 13 -106 48 -135 54 -8 2 -37 6 -65 9 -27 3 -54 10 -59
15 -14 12 -33 11 -42 -2z"/>
<path d="M1320 4571 c0 -17 18 -21 24 -6 3 9 0 15 -9 15 -8 0 -15 -4 -15 -9z"/>
<path d="M1545 4560 c4 -6 11 -8 16 -5 14 9 11 15 -7 15 -8 0 -12 -5 -9 -10z"/>
<path d="M4789 4539 c-9 -6 4 -9 40 -9 30 0 52 2 50 4 -11 9 -77 13 -90 5z"/>
<path d="M1265 4521 c-33 -5 -36 -7 -17 -13 12 -3 22 -13 22 -22 0 -23 33 -20
48 4 12 20 9 42 -6 39 -4 -1 -25 -5 -47 -8z"/>
<path d="M4517 4523 c-15 -15 -5 -23 27 -23 47 0 72 10 54 21 -16 10 -72 12
-81 2z"/>
<path d="M4892 4522 c-9 -6 7 -11 49 -16 97 -10 135 -8 122 5 -15 15 -153 23
-171 11z"/>
<path d="M6143 4496 c-15 -17 -7 -26 24 -26 18 0 24 5 21 17 -4 22 -29 27 -45
9z"/>
<path d="M942 4480 c-25 -20 -22 -24 25 -34 39 -9 73 8 73 34 0 16 -7 20 -37
20 -22 -1 -48 -9 -61 -20z"/>
<path d="M7048 4484 c-50 -63 -76 -83 -99 -77 -21 6 -23 5 -10 -10 12 -15 10
-17 -20 -18 -19 -1 -37 -1 -42 0 -4 1 -22 -5 -40 -12 -18 -8 -56 -13 -87 -11
-56 3 -102 -8 -132 -34 -13 -11 -15 -19 -7 -40 12 -30 5 -52 -15 -52 -18 0
-30 33 -21 59 7 23 -10 36 -47 33 -14 -1 -29 2 -33 8 -3 5 -16 10 -27 10 -28
0 -88 38 -88 56 0 8 -6 14 -14 14 -8 0 -12 -7 -10 -17 2 -10 0 -24 -5 -32 -7
-11 -13 -10 -36 5 -22 14 -30 15 -47 5 -11 -6 -46 -13 -78 -15 -53 -3 -59 -1
-69 22 -10 20 -14 22 -27 11 -9 -7 -20 -24 -25 -37 -7 -19 -5 -28 11 -42 23
-20 19 -64 -8 -112 -13 -23 -14 -33 -4 -61 7 -18 12 -50 12 -70 0 -20 5 -39
10 -42 6 -3 10 -16 10 -28 0 -42 58 -56 85 -20 6 7 24 15 40 18 23 5 37 0 60
-20 30 -26 52 -28 118 -9 14 4 17 -1 17 -35 0 -58 45 -92 77 -60 18 18 61 2
75 -29 11 -23 21 -28 68 -33 50 -6 101 2 140 21 9 4 15 21 15 39 0 22 6 36 20
44 32 18 85 73 85 89 0 7 -5 19 -12 26 -16 16 -99 15 -121 -2 -16 -12 -23 -12
-48 2 -16 10 -35 32 -41 50 -11 29 -16 32 -38 26 -48 -12 -55 -10 -58 20 -4
32 6 81 15 73 3 -4 18 0 34 8 17 9 46 13 78 11 32 -3 56 1 68 10 10 7 29 14
43 14 14 0 39 7 55 16 17 9 56 18 88 21 46 5 55 8 46 19 -7 8 -9 28 -5 49 7
36 5 35 116 62 28 7 36 14 38 36 2 16 -2 35 -9 43 -16 19 -85 18 -101 -2z
m-611 -270 c11 5 11 2 -1 -16 -9 -12 -19 -44 -22 -71 -4 -31 -13 -51 -25 -57
-30 -16 -47 -11 -53 16 -4 15 -14 33 -21 41 -8 8 -15 28 -15 44 0 25 4 29 26
29 21 0 25 4 23 23 -2 12 0 28 5 36 7 10 15 6 38 -18 18 -19 36 -30 45 -27z"/>
<path d="M3330 4475 c-21 -25 -2 -31 20 -7 15 16 17 22 7 22 -8 0 -20 -7 -27
-15z"/>
<path d="M6101 4446 c-11 -13 -11 -20 -3 -28 8 -8 13 -7 18 5 10 27 0 41 -15
23z"/>
<path d="M3100 4376 c0 -31 5 -56 10 -56 6 0 10 22 10 49 0 28 -4 53 -10 56
-6 4 -10 -15 -10 -49z"/>
<path d="M1866 4388 c-14 -17 -26 -32 -26 -35 0 -11 66 10 78 25 17 22 15 29
-7 35 -12 3 -28 -6 -45 -25z"/>
<path d="M2451 4396 c-20 -21 -22 -29 -14 -53 10 -29 9 -63 -2 -120 -6 -25 -4
-33 7 -33 14 0 58 51 58 68 0 12 54 62 68 62 20 0 13 35 -10 57 -25 22 -61 43
-76 43 -5 0 -19 -11 -31 -24z"/>
<path d="M5906 4407 c-25 -18 -6 -67 27 -67 13 0 28 -5 33 -10 16 -16 64 9 64
31 0 20 -11 29 -60 46 -43 16 -42 16 -64 0z"/>
<path d="M5053 4403 c9 -2 25 -2 35 0 9 3 1 5 -18 5 -19 0 -27 -2 -17 -5z"/>
<path d="M0 4160 c1 -219 2 -229 19 -218 11 7 26 8 37 3 11 -5 24 -7 29 -5 10
2 55 7 140 13 37 3 45 1 45 -13 0 -20 41 -60 47 -45 2 6 18 9 37 7 26 -3 40 3
65 26 20 18 29 32 22 36 -13 8 -81 -20 -81 -33 0 -6 -11 -10 -25 -9 -17 2 -25
8 -25 20 0 10 5 18 11 18 6 0 9 6 6 13 -2 6 -12 11 -21 9 -20 -4 -39 42 -34
80 3 15 2 27 -1 26 -3 0 -14 0 -23 1 -23 1 -34 61 -18 92 11 20 10 25 -14 45
-19 17 -26 33 -26 58 0 25 -6 38 -19 46 -36 19 -50 12 -53 -27 -2 -32 -6 -37
-23 -35 -24 5 -35 19 -35 47 0 11 -9 26 -20 33 -11 7 -20 19 -20 27 0 8 -5 15
-10 15 -7 0 -10 -81 -10 -230z m166 -95 c10 -8 16 -15 12 -15 -5 0 -11 0 -15
-1 -5 0 -22 -11 -40 -25 -17 -13 -39 -24 -47 -24 -18 0 -21 32 -6 61 13 23 67
26 96 4z"/>
<path d="M1850 4298 c-17 -36 -27 -38 -106 -27 -37 5 -82 7 -99 3 -19 -3 -35
-1 -39 5 -11 17 -35 13 -60 -11 -12 -13 -31 -24 -42 -25 -88 -10 -114 -37 -47
-49 31 -6 39 -3 56 17 21 26 17 26 172 28 102 2 205 17 205 30 -1 3 -7 17 -14
31 l-14 25 -12 -27z"/>
<path d="M7921 4306 c-18 -10 -34 -11 -63 -3 -32 8 -42 7 -58 -8 -13 -12 -27
-15 -44 -11 -21 5 -27 2 -32 -19 -7 -28 -14 -31 -32 -13 -9 9 -12 6 -12 -14 0
-15 -9 -33 -20 -41 -11 -7 -26 -30 -34 -49 -17 -41 -32 -49 -63 -37 -28 10
-29 39 -3 69 23 27 14 44 -27 55 -30 7 -58 -14 -68 -53 -13 -53 -43 -66 -77
-35 -14 13 -23 14 -41 6 -14 -7 -30 -7 -37 -3 -8 5 -18 6 -22 4 -5 -3 -8 -2
-7 3 4 17 -14 63 -23 57 -5 -3 -20 2 -34 11 -23 15 -26 15 -55 -6 -25 -18 -39
-20 -78 -15 -47 6 -49 5 -61 -24 -17 -41 -5 -78 28 -91 29 -11 137 5 148 22 7
12 44 11 44 -1 0 -5 -10 -10 -22 -11 -13 0 -17 -3 -11 -6 8 -3 11 -14 7 -27
-6 -25 29 -65 41 -47 11 19 26 12 23 -11 -2 -18 -8 -22 -28 -19 -14 2 -31 4
-39 5 -7 0 -19 -14 -25 -33 -18 -51 -76 -93 -76 -54 0 16 -2 16 -15 2 -14 -14
-14 -21 2 -74 13 -43 24 -60 43 -68 14 -6 32 -16 40 -23 8 -7 31 -16 50 -22
l35 -9 -57 -29 c-74 -36 -78 -74 -8 -74 29 0 33 -17 11 -39 -46 -46 14 -77 77
-41 33 18 43 20 61 10 15 -7 26 -8 34 -2 7 5 25 10 40 10 40 -1 70 29 56 54
-16 30 7 78 37 78 15 0 28 9 37 26 18 34 31 16 17 -22 -6 -15 -9 -33 -6 -41 3
-8 -2 -13 -12 -13 -23 0 -42 -19 -42 -42 0 -13 10 -20 30 -25 17 -3 33 -10 36
-14 3 -5 35 -9 72 -9 l67 0 3 113 c3 122 9 170 22 162 4 -3 15 6 24 19 41 63
65 80 110 77 42 -2 46 0 80 45 l36 47 0 158 0 159 -27 0 c-16 -1 -39 -7 -52
-14z m-567 -255 c10 -16 -18 -41 -34 -31 -10 6 -11 10 -2 10 6 0 12 7 12 15 0
16 16 20 24 6z m396 -47 c13 -24 12 -27 -31 -64 -58 -50 -82 -56 -111 -27 -23
22 -23 23 -6 57 21 41 51 59 99 60 28 0 38 -5 49 -26z m-502 -130 c27 -6 29
-9 21 -28 -23 -50 -83 -57 -91 -11 -8 40 11 51 70 39z m240 -157 c-2 -12 -13
-26 -25 -32 -13 -5 -23 -13 -23 -18 0 -5 -8 -1 -17 8 -16 16 -17 16 -26 -6 -9
-22 -10 -22 -15 -5 -2 11 3 25 11 31 9 6 19 23 22 38 5 18 14 27 33 29 31 3
45 -12 40 -45z"/>
<path d="M7247 4304 c-11 -11 5 -34 24 -34 22 0 24 11 7 28 -13 13 -22 15 -31
6z"/>
<path d="M2148 4163 c-17 -18 -19 -25 -9 -37 7 -9 16 -15 19 -14 4 1 14 -2 22
-5 8 -3 26 -7 40 -9 18 -2 30 -14 43 -40 21 -43 36 -47 61 -19 22 24 15 37
-30 56 -30 12 -34 17 -25 34 18 34 4 49 -50 53 -42 2 -54 -1 -71 -19z"/>
<path d="M1050 4130 c-8 -5 -31 -10 -50 -11 l-35 0 39 -15 c42 -15 51 -13 66
17 12 21 4 24 -20 9z"/>
<path d="M4878 4033 c12 -2 30 -2 40 0 9 3 -1 5 -23 4 -22 0 -30 -2 -17 -4z"/>
<path d="M5942 3915 c0 -16 2 -22 5 -12 2 9 2 23 0 30 -3 6 -5 -1 -5 -18z"/>
<path d="M657 3846 c-8 -9 -20 -16 -26 -16 -23 0 -10 -18 17 -23 47 -9 112 4
123 25 9 17 7 19 -23 18 -18 -1 -42 1 -54 5 -13 4 -27 1 -37 -9z"/>
<path d="M0 3835 c0 -8 5 -15 10 -15 6 0 10 7 10 15 0 8 -4 15 -10 15 -5 0
-10 -7 -10 -15z"/>
<path d="M502 3838 c-16 -16 -15 -28 3 -28 8 0 15 9 15 20 0 23 -2 24 -18 8z"/>
<path d="M1036 3814 c-3 -9 -6 -26 -6 -40 0 -28 32 -40 85 -30 20 4 44 2 57
-5 18 -9 24 -9 34 6 31 42 -25 83 -117 84 -34 1 -49 -3 -53 -15z"/>
<path d="M345 3770 c-16 -30 -27 -35 -102 -43 -55 -6 -113 -63 -83 -82 19 -12
10 -26 -26 -41 -20 -9 -47 -13 -60 -10 -13 4 -35 4 -49 0 -21 -5 -25 -12 -25
-40 0 -19 2 -34 4 -34 3 0 26 14 51 31 41 28 48 30 63 16 9 -8 27 -20 40 -26
19 -10 23 -9 33 12 14 31 48 52 62 38 32 -32 81 5 92 70 4 24 13 54 21 66 16
25 19 73 4 73 -5 0 -16 -13 -25 -30z"/>
<path d="M3550 3760 c0 -5 -9 -10 -19 -10 -32 0 -164 -52 -196 -77 -69 -54
-113 -98 -108 -109 3 -7 10 -11 17 -8 9 3 16 -6 19 -25 9 -43 35 -40 88 9 24
22 49 40 56 40 6 0 15 9 18 20 3 11 14 20 23 20 23 1 42 17 72 62 13 20 35 42
47 47 28 13 30 41 3 41 -11 0 -20 -4 -20 -10z"/>
<path d="M0 3710 c0 -16 2 -30 5 -30 2 0 11 14 20 30 15 29 15 30 -5 30 -16 0
-20 -7 -20 -30z"/>
<path d="M713 3708 c-38 -23 -41 -33 -13 -48 26 -14 35 -8 48 30 14 38 5 42
-35 18z"/>
<path d="M974 3633 l-18 -28 24 16 c26 17 38 39 22 39 -5 0 -18 -12 -28 -27z"/>
<path d="M5790 3593 c0 -6 5 -15 10 -18 6 -3 10 -17 10 -31 0 -13 5 -24 10
-24 16 0 11 33 -10 60 -11 14 -20 20 -20 13z"/>
<path d="M518 3578 c-32 -11 -33 -12 -14 -66 15 -40 11 -72 -15 -124 -13 -25
-11 -38 4 -38 7 0 20 14 28 32 8 17 29 39 47 49 75 39 91 76 47 105 -14 9 -25
25 -25 35 0 21 -27 24 -72 7z"/>
<path d="M5977 3543 c-3 -5 -11 -35 -18 -68 -7 -33 -25 -82 -39 -110 -15 -27
-28 -67 -29 -87 -1 -32 2 -38 23 -44 29 -7 46 1 46 22 0 18 70 20 88 2 9 -9
12 -7 12 10 0 26 20 72 32 72 4 0 8 5 8 11 0 6 -7 8 -16 5 -8 -3 -12 -2 -9 4
3 6 -3 10 -14 10 -29 0 -26 24 5 45 21 14 24 21 19 48 -11 53 -90 111 -108 80z"/>
<path d="M7810 3524 c0 -9 7 -14 17 -12 25 5 28 28 4 28 -12 0 -21 -6 -21 -16z"/>
<path d="M6474 3504 c-8 -32 8 -51 25 -30 13 16 6 56 -9 56 -6 0 -13 -12 -16
-26z"/>
<path d="M141 3475 c-17 -20 -31 -40 -31 -45 0 -6 -18 -10 -39 -10 -73 0 -71
6 -71 -175 0 -128 3 -165 14 -174 11 -9 17 -8 28 7 7 10 28 27 46 36 32 16 33
19 26 62 -6 45 -6 45 20 38 14 -3 52 -3 82 1 44 5 57 11 61 26 3 10 14 19 24
19 24 0 85 54 92 80 7 27 -17 43 -52 35 -17 -3 -45 -1 -63 5 -27 10 -40 9 -72
-4 -47 -19 -86 -21 -86 -3 0 16 37 57 52 57 6 0 8 11 6 25 -3 14 -1 25 3 25 5
0 9 7 9 15 0 24 -16 18 -49 -20z m-64 -277 c-3 -7 -5 -2 -5 12 0 14 2 19 5 13
2 -7 2 -19 0 -25z"/>
<path d="M760 3461 c0 -12 6 -21 16 -21 9 0 14 7 12 17 -5 25 -28 28 -28 4z"/>
<path d="M7078 3423 c7 -3 16 -2 19 1 4 3 -2 6 -13 5 -11 0 -14 -3 -6 -6z"/>
<path d="M7033 3396 c-6 -8 -9 -17 -6 -20 13 -13 43 -5 53 14 9 17 8 20 -12
20 -13 -1 -28 -7 -35 -14z"/>
<path d="M7140 3396 c0 -7 7 -19 16 -27 13 -10 17 -10 25 2 6 9 3 18 -8 27
-22 16 -33 15 -33 -2z"/>
<path d="M7235 3370 c-9 -15 -1 -23 21 -18 15 3 16 4 1 16 -11 9 -17 10 -22 2z"/>
<path d="M7300 3360 c-22 -7 -21 -8 13 -9 23 -1 36 3 32 9 -7 11 -10 11 -45 0z"/>
<path d="M7450 3340 c20 -13 60 -13 60 0 0 6 -17 10 -37 10 -28 0 -34 -3 -23
-10z"/>
<path d="M500 3323 c-33 -22 -40 -33 -40 -64 0 -19 11 -34 40 -54 l41 -28 17
24 c9 13 22 39 29 58 22 64 -30 103 -87 64z"/>
<path d="M7920 3289 c0 -5 5 -7 10 -4 6 3 10 8 10 11 0 2 -4 4 -10 4 -5 0 -10
-5 -10 -11z"/>
<path d="M3700 3260 c-13 -9 -13 -11 0 -20 15 -10 25 0 18 20 -2 6 -8 6 -18 0z"/>
<path d="M356 3244 c-12 -30 -7 -56 11 -52 20 4 25 29 8 51 -11 16 -13 16 -19
1z"/>
<path d="M3326 2991 c-4 -7 -5 -15 -2 -18 9 -9 19 4 14 18 -4 11 -6 11 -12 0z"/>
<path d="M5905 2924 c-22 -23 -15 -47 15 -51 40 -5 56 11 42 41 -13 30 -33 33
-57 10z"/>
<path d="M3356 2885 c-3 -8 -2 -15 3 -15 5 0 14 7 21 15 10 12 10 15 -3 15 -8
0 -17 -7 -21 -15z"/>
<path d="M5815 2881 c-10 -17 12 -21 25 -6 10 12 10 15 -3 15 -9 0 -18 -4 -22
-9z"/>
<path d="M150 2734 c0 -14 3 -14 15 -4 8 7 15 14 15 16 0 2 -7 4 -15 4 -8 0
-15 -7 -15 -16z"/>
<path d="M887 2513 c-30 -29 26 -63 60 -37 17 13 17 15 -1 29 -21 16 -48 20
-59 8z"/>
<path d="M4310 2510 c0 -5 5 -10 10 -10 6 0 10 5 10 10 0 6 -4 10 -10 10 -5 0
-10 -4 -10 -10z"/>
<path d="M3960 2471 c0 -21 5 -31 15 -31 8 0 16 5 16 10 5 36 2 45 -13 48 -14
3 -18 -3 -18 -27z"/>
<path d="M4167 2480 c-9 -13 -13 -28 -10 -34 4 -6 8 -4 11 4 3 8 9 18 15 21 5
4 7 13 5 20 -3 8 -10 5 -21 -11z"/>
<path d="M760 2470 c0 -5 5 -10 10 -10 6 0 10 5 10 10 0 6 -4 10 -10 10 -5 0
-10 -4 -10 -10z"/>
<path d="M866 2451 c-4 -7 -5 -15 -2 -18 9 -9 19 4 14 18 -4 11 -6 11 -12 0z"/>
<path d="M993 2152 c-11 -7 -16 -26 -14 -50 2 -20 50 19 51 41 0 18 -17 22
-37 9z"/>
<path d="M448 1973 c7 -3 16 -2 19 1 4 3 -2 6 -13 5 -11 0 -14 -3 -6 -6z"/>
<path d="M83 1926 c-29 -16 -53 -33 -53 -37 0 -11 72 -19 90 -9 23 12 43 67
27 73 -7 2 -36 -10 -64 -27z"/>
<path d="M1121 1858 c-1 -12 6 -18 19 -18 14 0 18 5 13 16 -4 11 -8 12 -13 4
-6 -9 -9 -9 -13 1 -4 10 -6 9 -6 -3z"/>
<path d="M70 1722 c0 -10 13 -33 29 -52 24 -29 31 -32 43 -22 22 18 17 47 -14
71 -32 26 -58 27 -58 3z"/>
<path d="M7506 1701 c-16 -25 13 -144 39 -163 19 -14 35 -8 35 12 0 23 29 27
59 8 22 -13 55 -4 49 15 -3 6 -17 13 -31 15 -15 2 -27 8 -27 13 0 5 -6 9 -14
9 -16 0 -26 21 -26 56 0 20 -4 24 -19 19 -10 -3 -24 1 -31 10 -14 17 -26 19
-34 6z"/>
<path d="M635 1650 c-10 -11 -24 -20 -31 -20 -18 0 -44 -40 -44 -67 0 -28 -1
-28 54 -2 35 17 46 30 55 59 6 21 11 40 11 44 0 13 -28 5 -45 -14z"/>
<path d="M7905 1593 c-61 -41 -41 -88 43 -99 l52 -7 0 66 0 66 -30 -1 c-16 -1
-46 -12 -65 -25z"/>
<path d="M500 1446 c0 -9 5 -16 10 -16 6 0 10 4 10 9 0 6 -4 13 -10 16 -5 3
-10 -1 -10 -9z"/>
<path d="M406 1351 c-4 -7 -5 -15 -2 -18 9 -9 19 4 14 18 -4 11 -6 11 -12 0z"/>
<path d="M653 1333 c-20 -7 -15 -19 7 -20 11 -1 20 2 20 7 0 12 -13 18 -27 13z"/>
<path d="M610 1295 c0 -8 5 -15 10 -15 6 0 10 7 10 15 0 8 -4 15 -10 15 -5 0
-10 -7 -10 -15z"/>
<path d="M174 1239 c-16 -17 -40 -36 -54 -42 -15 -8 -25 -21 -25 -34 -1 -30
-15 -41 -26 -20 -14 24 -34 21 -53 -8 -11 -17 -16 -46 -15 -97 0 -58 2 -68 10
-49 5 14 9 32 7 40 -4 27 31 81 52 81 10 0 21 -4 24 -9 9 -13 59 0 77 21 9 10
28 18 42 18 22 0 37 16 37 39 0 4 -10 7 -21 8 -35 3 -44 19 -29 48 20 37 8 39
-26 4z"/>
<path d="M7850 491 c0 -6 5 -13 10 -16 6 -3 10 1 10 9 0 9 -4 16 -10 16 -5 0
-10 -4 -10 -9z"/>
<path d="M7891 405 c-59 -25 -66 -33 -74 -87 -5 -33 -2 -39 29 -63 l35 -27 20
21 c10 11 19 25 19 30 0 6 7 20 17 30 9 11 23 39 30 62 12 35 12 43 1 50 -16
11 -12 12 -77 -16z"/>
<path d="M7567 215 c-6 -35 2 -54 14 -32 5 8 5 26 1 38 -9 22 -9 22 -15 -6z"/>
<path d="M7877 193 c-14 -13 -7 -33 11 -33 19 0 42 18 42 32 0 10 -44 11 -53
1z"/>
</g>
</svg>
